<?xml version="1.0" standalone="no"?>
<!DOCTYPE svg PUBLIC "-//W3C//DTD SVG 1.1//EN" "http://www.w3.org/Graphics/SVG/1.1/DTD/svg11.dtd" >
<svg xmlns="http://www.w3.org/2000/svg" xmlns:xlink="http://www.w3.org/1999/xlink" version="1.1">
<metadata>
Created by FontForge 20190801 at Mon Sep 19 00:49:17 2022
 By root
</metadata>
<defs>
<font id="DolomanPavljenkoLight" horiz-adv-x="0" >
  <font-face 
    font-family="Doloman Pavljenko Light"
    font-weight="300"
    font-stretch="normal"
    units-per-em="1000"
    panose-1="0 0 0 0 0 0 0 0 0 0"
    ascent="800"
    descent="-200"
    x-height="407.89"
    cap-height="696.45"
    bbox="-24 -187.92 878.24 804.13"
    underline-thickness="0"
    underline-position="0"
    unicode-range="U+000A-FB00"
  />
<missing-glyph horiz-adv-x="527" 
d="M50 700h427v-700h-427v700zM78 680l185 -309l186 309h-371zM251 350l-180 300v-601zM264 329l-185 -308h370zM276 350l181 -303v605z" />
    <glyph glyph-name="ft.liga" unicode="ft" horiz-adv-x="446" 
d="M304.61 623.55l0.000976562 -230.87h122.72v-39.9297h-122.73v-362.35h-38.9502v362.35h-144.17v-362.33h-39.9297v362.35h-54.5498v39.9297h54.5498v225.98c0 30.5195 10.71 54.5498 32.1602 72.0801c21.4199 17.54 47.7197 26.3096 78.8896 26.3096
c30.5195 0 56.1699 -7.79004 76.9502 -23.3799c23.3799 -17.54 35.0596 -40.9199 35.0596 -70.1396zM265.651 392.699l0.000976562 221.12c0 42.8604 -24.3604 64.29 -73.0605 64.29c-47.4102 0 -71.1104 -22.0898 -71.1104 -66.2402v-219.17h144.17z" />
    <glyph glyph-name="hyphenhyphen.liga" unicode="&#x2d;&#x2d;" horiz-adv-x="573" 
d="M539.53 228.09h-506.53v39.9297h506.53v-39.9297z" />
    <glyph glyph-name="ff.liga" unicode="ff" horiz-adv-x="424" 
d="M328.01 662.52c-12.3496 -9.75 -18.5 -26.6377 -18.5303 -50.6475v-219.19h95.46v-39.9297h-95.46v-362.35h-38.96v362.35h-149.04v-362.33h-39.9297v362.35h-54.5498v39.9297h54.5498v190.92c0 33.1104 10.0703 59.4199 30.2002 78.9004
c20.1299 19.4902 47.0801 29.2207 80.8496 29.2207c40.9199 0 70.1504 -12.0098 87.6699 -36.04c1.9502 18.1699 12.9902 32.4697 33.1299 42.8594c16.8604 9.08008 35.0605 13.6299 54.541 13.6299c5.83984 0 10.71 -0.160156 14.6104 -0.480469
c3.88965 -0.330078 7.12988 -0.820312 9.72949 -1.4502l25.3301 -3.91016v-37.9805l-18.5098 2.92969l-32.1396 2.91992c-16.2305 0 -29.2207 -3.91016 -38.9512 -11.7002zM121.5 392.701l149.021 -0.000976562v215.28c-5.83984 13.6299 -15.9102 24.3398 -30.1904 32.1299
c-14.2803 8.42969 -30.2002 12.6602 -47.7305 12.6602c-47.4004 0 -71.1006 -24.6797 -71.1006 -74.0293v-186.04z" />
    <glyph glyph-name=".notdef" horiz-adv-x="527" 
d="M50 700h427v-700h-427v700zM78 680l185 -309l186 309h-371zM251 350l-180 300v-601zM264 329l-185 -308h370zM276 350l181 -303v605z" />
    <glyph glyph-name=".null" 
 />
    <glyph glyph-name=".null" 
 />
    <glyph glyph-name="controlLF" unicode="&#xa;" 
 />
    <glyph glyph-name="controlCR" unicode="&#xd;" 
 />
    <glyph glyph-name="space" unicode=" " horiz-adv-x="285" 
 />
    <glyph glyph-name="exclam" unicode="!" horiz-adv-x="199" 
d="M117.55 134.58h-38.9502v551.32h38.9502v-551.32zM123.409 45.9297c5.19043 -5.20996 8.77148 -13.3301 10.7217 -24.3496c0 -19.4805 -11.6904 -31.1602 -35.0703 -35.0703c-23.3604 0 -35.0605 11.6904 -35.0605 35.0703c0 19.4697 11.6797 31.1699 35.0596 35.0596
c9.08984 0 17.1895 -3.57031 24.3496 -10.71z" />
    <glyph glyph-name="quotedbl" unicode="&#x22;" horiz-adv-x="244" 
d="M56.75 542.7l-9.75 155.86h39.9404l-9.74023 -155.86h-20.4502zM156.1 698.561h39.9395l-9.75 -155.86h-19.4697z" />
    <glyph glyph-name="quotedbl" unicode="&#x201d;" horiz-adv-x="244" 
d="M56.75 542.7l-9.75 155.86h39.9404l-9.74023 -155.86h-20.4502zM156.1 698.561h39.9395l-9.75 -155.86h-19.4697z" />
    <glyph glyph-name="quotedbl" unicode="&#x201c;" horiz-adv-x="244" 
d="M56.75 542.7l-9.75 155.86h39.9404l-9.74023 -155.86h-20.4502zM156.1 698.561h39.9395l-9.75 -155.86h-19.4697z" />
    <glyph glyph-name="numbersign" unicode="#" horiz-adv-x="579" 
d="M519.54 312.64h-125.694l-27.2695 -112.02h132.48l-7.7998 -24.3398h-130.52l-31.1699 -127.6h-24.3604l32.1504 127.6h-136.37l-30.2002 -122.73h-23.3799l29.2305 122.73h-126.64l7.79004 24.3398h124.69l27.2695 112.02h-137.35l7.7998 23.3896h135.4l30.2002 123.7
h23.3799l-29.2197 -123.7h135.4l30.2002 123.7h23.3799l-29.2197 -123.7h127.61zM343.226 200.62l27.2695 112.02h-137.34l-26.2998 -112.02h136.37z" />
    <glyph glyph-name="dollar" unicode="$" horiz-adv-x="516" 
d="M286.85 381.98c112.99 -44.1699 169.479 -111.381 169.489 -201.631c0 -57.1602 -13.6396 -103.26 -40.9092 -138.319c-30.5303 -38.9697 -73.3906 -58.4502 -128.581 -58.4502v-52.5996h-38.9697v51.6299c-48.0596 0 -89.2998 13.29 -123.7 39.9297
c-33.7803 26.6201 -56.5 63.6396 -68.1797 111.05l39.9297 13.6299c22.0596 -82.4697 72.71 -123.71 151.95 -123.71v331.18c-51.9697 18.1904 -88.9795 38.3203 -111.039 60.4004c-29.2305 27.9199 -43.8408 65.9102 -43.8408 113.98
c0 44.7998 14.6104 82.4697 43.8408 113c29.2197 31.1602 66.2295 46.7402 111.039 46.7402v51.6299h38.9697v-51.6299c62.9805 0 109.74 -30.1797 140.271 -90.5801l-37.0098 -16.5596c-21.4297 38.9697 -55.8594 61.6895 -103.26 68.1895v-267.88zM247.879 397.56
l-0.000976562 252.309c-35.71 -5.20996 -63.3096 -18.5098 -82.7793 -39.9395c-20.7998 -22.75 -31.1797 -51 -31.1797 -84.75c0 -33.1299 11.6904 -60.3994 35.0703 -81.8291c16.8799 -16.25 43.1699 -31.5 78.8896 -45.79zM386.198 71.248
c20.1299 27.9199 30.2002 64.29 30.2002 109.1c0 70.7695 -43.1904 123.71 -129.551 158.77v-315.59c44.1504 0 77.2803 15.9004 99.3506 47.7207z" />
    <glyph glyph-name="percent" unicode="%" horiz-adv-x="549" 
d="M451.45 685.9h38.9697l-377.95 -695.5h-38.9697zM456.32 188.141c24.0098 -24.04 36.04 -52.6006 36.04 -85.7109c0 -34.4199 -11.6797 -62.6797 -35.0596 -84.7393c-24.6904 -23.3701 -53.5703 -35.0703 -86.6904 -35.0703c-31.8301 0 -59.7598 12 -83.7695 36.04
c-24.7002 24.6797 -37.0098 52.5898 -37.0098 83.7695c0 32.4502 11.6797 61.0205 35.0596 85.7109c24.0098 24.0098 52.5996 36.04 85.7197 36.04c33.1104 0 61.6699 -12.0098 85.71 -36.04zM427.101 45.9297c16.8799 16.8799 25.3213 35.7002 25.3213 56.5
c0 22.0703 -8.12988 41.2305 -24.3496 57.4609c-16.2305 16.2402 -35.4004 24.3604 -57.46 24.3604c-22.0801 0 -40.9102 -8.12012 -56.5 -24.3604c-16.2305 -16.2305 -24.3408 -35.3906 -24.3408 -57.4609c0 -21.4297 8.11035 -39.9297 24.3408 -55.5195
c16.2197 -16.25 35.0693 -24.3604 56.499 -24.3604c20.7598 0 39.5996 7.7998 56.4893 23.3799zM175.781 427.76c-31.8203 0 -59.748 12 -83.7578 36.04c-24.6904 24.6797 -37.0205 52.6094 -37.0205 83.7793c0 32.4697 11.6797 61.0293 35.0596 85.7197
c24.0195 24.0098 52.6094 36.04 85.7197 36.04s61.6699 -12.0195 85.7197 -36.0391c24.0098 -24.0303 36.04 -52.6104 36.04 -85.7207c0 -34.4297 -11.6904 -62.6895 -35.0703 -84.749c-24.6904 -23.3701 -53.5605 -35.0703 -86.6904 -35.0703zM119.303 605.04
c-16.25 -16.2402 -24.3604 -35.3984 -24.3604 -57.4688c0 -21.4502 8.11035 -39.9502 24.3604 -55.5303c16.2197 -16.2402 35.0596 -24.3506 56.4893 -24.3506c19.4805 0 38.6309 7.7998 57.4707 23.3799c16.2402 16.2197 24.3604 35.0693 24.3604 56.499
c0 22.0703 -8.12012 41.2305 -24.3604 57.4707c-16.2305 16.2305 -35.3906 24.3506 -57.4707 24.3506c-22.0898 0 -40.8994 -8.12012 -56.4893 -24.3506z" />
    <glyph glyph-name="ampersand" unicode="&#x26;" horiz-adv-x="614" 
d="M566.37 190.08l-103.268 -83.792l76.96 -115.92h-45.79l-61.3496 91.5801c-79.25 -63.6602 -152.62 -95.4697 -220.15 -95.4697c-46.7598 0 -85.0801 14.29 -114.94 42.8604c-29.2197 27.9199 -43.8301 64.6201 -43.8301 110.07c0 54.5498 25.6504 105.53 76.96 152.931
l110.07 80.8496l-38.9697 58.4502l-29.2197 49.6699c-9.74023 20.1299 -14.6104 40.5801 -14.6104 61.3799c0 38.96 13.6504 71.1104 40.9199 96.4307c27.9004 25.9697 61.3604 38.9697 100.33 38.9697c44.8096 0 80.8496 -11.6797 108.119 -35.0596
s40.8994 -57.1602 40.8994 -101.311c0 -45.46 -28.5703 -87.6602 -85.71 -126.63l-71.1104 -48.7002l151.96 -230.85l101.3 82.79zM234.213 452.108l37.998 -57.4922l74.0303 49.6797c9.08008 6.49023 17.6904 13.4707 25.8105 20.9512
c8.12988 7.4502 15.4199 15.7305 21.9297 24.8301l13.6299 25.3203c2.58008 5.86035 4.21973 14.6104 4.87012 26.3105c0 33.7695 -10.0801 58.7598 -30.2002 75.0098c-20.7998 16.8799 -48.0693 25.3301 -81.8291 25.3301c-27.9297 0 -52.2793 -9.41016 -73.0488 -28.25
c-20.7998 -19.4697 -31.1797 -43.1797 -31.1797 -71.0996c0 -18.8398 3.55957 -34.4297 10.7197 -46.7598zM383.251 88.2959c9.08984 6.15039 19.1514 13.7998 30.2314 22.8799l-153.91 232.81c-26.6201 -18.1904 -48.3799 -33.6104 -65.2598 -46.2705
c-16.8896 -12.6602 -29.5596 -23.2305 -37.9893 -31.6602c-41.5703 -40.9199 -62.3506 -83.1299 -62.3506 -126.63c0 -34.4199 11.3496 -62.0098 34.0898 -82.79c22.0596 -21.4297 50.6494 -32.1396 85.7197 -32.1396c46.7402 0 95.1104 15.9102 145.13 47.7305
c7.13965 4.53027 15.2393 9.87988 24.3389 16.0703z" />
    <glyph glyph-name="quotesingle" unicode="'" horiz-adv-x="135" 
d="M47 685.9h40.9199l-9.75 -154.88h-21.4199z" />
    <glyph glyph-name="quotesingle" unicode="&#x2019;" horiz-adv-x="135" 
d="M47 685.9h40.9199l-9.75 -154.88h-21.4199z" />
    <glyph glyph-name="quotesingle" unicode="&#x2018;" horiz-adv-x="135" 
d="M47 685.9h40.9199l-9.75 -154.88h-21.4199z" />
    <glyph glyph-name="parenleft" unicode="(" horiz-adv-x="224" 
d="M103.98 404.38c-2.59961 -28.5703 -3.8877 -54.2217 -3.8877 -76.9619c0 -136.36 24.3496 -268.841 73.0498 -397.411h-34.0801c-6.50977 16.8896 -12.5098 33.7695 -18.0195 50.6494c-5.53027 16.8799 -10.5605 34.0801 -15.1006 51.6201
c-1.2998 5.19043 -2.75977 12 -4.37988 20.46c-1.62012 8.44043 -3.74023 18.8301 -6.32031 31.1699c-1.32031 6.49023 -3.10059 15.2402 -5.36035 26.2998c-2.29004 11.0303 -5.0498 24.9805 -8.29004 41.8809c-5.2002 33.1104 -9.10059 64.2803 -11.6904 93.5107
c-2.61035 29.2197 -3.90039 56.5 -3.90039 81.8203c0 135.08 24.3604 267.54 73.0605 397.43h34.0801c-13 -33.7695 -24.2002 -69.3291 -33.6006 -106.659c-9.41992 -37.3496 -17.3799 -77.4395 -23.8604 -120.3c-5.20996 -33.7695 -9.12012 -64.9492 -11.7002 -93.5088z
" />
    <glyph glyph-name="parenright" unicode=")" horiz-adv-x="224" 
d="M153.74 412.67c2.25977 -28.25 3.39941 -56.6689 3.39941 -85.249c0 -139.62 -24.3496 -272.101 -73.0498 -397.41h-34.0898c12.9902 35.0596 24.1904 71.25 33.6104 108.6c9.40039 37.3398 17.3604 76.46 23.8604 117.38
c5.19043 32.4697 9.10059 62.9795 11.7002 91.5596c2.58008 28.5703 3.88965 55.1904 3.88965 79.8701c0 131.17 -24.3604 263.65 -73.0605 397.431h34.0898c26.6201 -70.79 46.4199 -146.11 59.4199 -225.98c4.53027 -29.21 7.94043 -57.9502 10.2305 -86.2002z" />
    <glyph glyph-name="asterisk" unicode="*" horiz-adv-x="356" 
d="M255.54 576.8c28.5801 -10.4004 44.8105 -25.0098 48.7207 -43.8594c0 -13.6299 -7.48047 -20.4502 -22.4102 -20.4502c-16.8896 0 -34.0898 8.41992 -51.6299 25.3203l-47.7197 45.7803l13.6396 -50.6504l4.86035 -42.8604
c0 -24.6797 -7.79004 -37.3398 -23.3799 -37.9902c-18.1797 -0.639648 -27.2695 11.3604 -27.2695 36.04c0 15.5898 0.980469 25.9697 2.93066 31.1797l18.5 64.2803l-45.79 -43.8301c-15.5801 -15.5898 -33.7705 -25.3203 -54.54 -29.2207
c-13.6299 0 -20.4502 7.79004 -20.4502 23.3799c0 20.7803 38.6201 40.9199 115.91 60.3896l-37.9902 6.82031l-32.1299 11.7002c-30.5498 11.6797 -45.79 25.3193 -45.79 40.8994c0 12.3301 7.12988 20.46 21.4297 24.3604c17.5195 0 35.3799 -9.09961 53.5596 -27.2695
l45.79 -46.75l-14.6104 48.7002l-5.83984 47.7402c0 21.4297 8.76953 33.7598 26.2891 37.0195c16.8799 0 25.3301 -12.3496 25.3301 -37.0195l-4.86035 -39.9404l-6.82031 -30.2002c0 -7.7998 -2.92969 -16.5693 -8.76953 -26.3096
c33.7598 42.21 66.8701 66.8701 99.3506 74.0303c13.6396 0 21.0996 -7.48047 22.4092 -22.4004c0 -11.04 -14.9404 -24.0303 -44.8105 -38.96l-72.0996 -22.3896c16.2197 -3.25977 30.04 -6.17969 41.4004 -8.76953c11.3604 -2.61035 20.29 -5.52051 26.79 -8.77051z" />
    <glyph glyph-name="plus" unicode="+" horiz-adv-x="338" 
d="M191.16 268.02h99.3496v-39.9297h-99.3496v-99.3701h-44.8096v99.3701h-99.3496v39.9297h99.3496v99.3496h44.8096v-99.3496z" />
    <glyph glyph-name="comma" unicode="," horiz-adv-x="131" 
d="M62.0801 57.6201l34.0996 -14.6104l-93.5195 -152.93l-12.6602 8.75z" />
    <glyph glyph-name="hyphen" unicode="-" horiz-adv-x="350" 
d="M316.45 228.09h-283.45v39.9297h283.45v-39.9297z" />
    <glyph glyph-name="period" unicode="." horiz-adv-x="135" 
d="M67.1504 48.8496c16.2197 0 26.9404 -10.7109 32.1406 -32.1406c0 -21.4297 -10.71 -32.1494 -32.1396 -32.1494c-7.16016 0 -14.6104 2.92969 -22.4004 8.76953c-5.84961 5.83984 -9.09961 13.6396 -9.75 23.3799c0 17.5303 10.7197 28.2305 32.1494 32.1406z" />
    <glyph glyph-name="slash" unicode="/" horiz-adv-x="339" 
d="M251.56 700.51h37.9912l-202.61 -710.11h-39.9404z" />
    <glyph glyph-name="zero" unicode="0" horiz-adv-x="636" 
d="M514.95 602.95c38.3096 -68.8301 57.4697 -149.04 57.4697 -240.59c0 -93.5098 -18.8496 -173.729 -56.5 -240.6c-46.7598 -81.8301 -113 -122.73 -198.71 -122.73c-85.0801 0 -150.98 41.2305 -197.74 123.7c-38.3203 67.5303 -57.4707 147.41 -57.4707 239.63
c0 92.8398 19.1504 173.05 57.4707 240.59c46.7598 82.46 112.66 123.71 197.74 123.71c85.0703 0 150.98 -41.25 197.74 -123.71zM476.96 140.26c35.71 59.0898 53.5693 133.119 53.5693 222.1c0 81.1602 -15.2695 151.62 -45.7793 211.37
c-38.3203 75.3203 -94.1699 112.99 -167.54 112.99c-65.5898 0 -118.51 -33.7803 -158.77 -101.311c-35.7305 -61.04 -53.5801 -135.39 -53.5801 -223.05c0 -79.8799 15.25 -149.689 45.7803 -209.43c38.9697 -75.3398 94.4893 -113 166.569 -113
c66.8799 0 120.13 33.4297 159.75 100.33z" />
    <glyph glyph-name="one" unicode="1" horiz-adv-x="278" 
d="M76.3096 704.26h131.501v-695.5h-39.9404v655.55h-117.87z" />
    <glyph glyph-name="two" unicode="2" horiz-adv-x="530" 
d="M335.36 274.69l-199.698 -226.002h333.13v-39.9297h-420.79l340.91 394.5c27.2803 38.9697 40.9199 79.5293 40.9199 121.76c0 40.9199 -16.2402 75.6504 -48.7002 104.23c-32.4805 27.9004 -70.1406 41.8809 -113.001 41.8809
c-52.6104 0 -93.8408 -16.8896 -123.711 -50.6494c-18.2002 -20.1396 -30.8398 -45.1592 -37.9902 -75.0088h-43.8398c4.54004 33.7598 21.4297 67.2002 50.6602 100.33c38.96 42.8496 90.5898 64.2793 154.88 64.2793c55.1797 0 102.609 -17.21 142.22 -51.6201
c39.6104 -33.7803 59.4199 -78.2607 59.4199 -133.44c0 -56.5 -21.0996 -112.01 -63.3096 -166.569c-5.83984 -7.15039 -14.6094 -17.6904 -26.2891 -31.6504c-11.7002 -13.9805 -26.6406 -31.3408 -44.8105 -52.1104z" />
    <glyph glyph-name="three" unicode="3" horiz-adv-x="509" 
d="M308.29 383.78c90.9102 -27.2695 136.359 -89.6104 136.34 -187.03c0 -57.8096 -18.8496 -104.229 -56.5 -139.289c-37.6602 -35.7305 -85.3799 -53.5801 -143.18 -53.5801c-48.0703 0 -89.3008 13.2998 -123.711 39.9395
c-33.1201 26.6104 -55.2002 63.9502 -66.2402 112.01h42.8604c8.42969 -31.8203 26.9395 -58.4404 55.5195 -79.8701c27.9199 -21.4297 58.4395 -32.1396 91.5693 -32.1396c42.8604 0 79.54 14.6104 110.07 43.8408c30.5303 30.5098 45.79 66.8701 45.79 109.09
c0 52.6104 -18.8496 93.8301 -56.5 123.71c-28.5898 22.7197 -57.8096 34.0898 -87.6592 34.0898h-40.9199v57.4697h40.9199c40.9004 0 73.6904 11.3496 98.3701 34.0898c24.0098 22.0703 36.04 54.2207 36.04 96.4307c0 40.2598 -12.9902 73.0596 -38.9502 98.3896
c-25.9805 25.9697 -59.4102 38.9502 -100.33 38.9502c-77.9199 0 -125.01 -40.9004 -141.229 -122.73h-45.79c5.86035 50.6504 25.6504 90.25 59.4199 118.84c33.7598 29.2305 76.2998 43.8408 127.609 43.8408c53.2402 0 97.7207 -16.2305 133.44 -48.7002
c35.71 -31.8203 53.5801 -74.6807 53.5801 -128.57c0 -86.3799 -43.5098 -139.3 -130.52 -158.78z" />
    <glyph glyph-name="four" unicode="4" horiz-adv-x="576" 
d="M440.39 714v-533.78h80.8701v-38.9697h-80.8496v-132.48h-40.9199v132.48h-357.49zM399.47 180.2v410.08l-286.37 -410.08h286.37z" />
    <glyph glyph-name="five" unicode="5" horiz-adv-x="583" 
d="M444.45 434.44c51.96 -44.1699 77.9404 -103.26 77.9307 -177.29c0 -75.3398 -22.7402 -137.01 -68.1904 -185.069c-46.1201 -48.71 -105.86 -73.0498 -179.23 -73.0498c-110.41 0 -186.05 48.7002 -226.96 146.11l37.0195 14.6104
c18.8301 -38.3203 40.9004 -66.8799 66.2305 -85.7197c31.8096 -23.3604 73.0596 -35.0605 123.71 -35.0605c60.3799 0 110.07 21.0898 149.03 63.3096c38.9697 41.5498 58.4395 93.1797 58.4395 154.88c0 60.4004 -21.7598 109.101 -65.2598 146.12
c-40.9102 35.0596 -88.3105 51.6191 -142.211 49.6689l-31.1699 -0.980469h-14.6104c-5.84961 0 -13.6396 -1.30957 -23.3799 -3.89941c-22.0801 0 -45.1396 -4.5498 -69.1592 -13.6299l69.1602 269.82h266.89v-39.9297h-235.72l-41.8799 -179.24l38.9502 4.86035
l40.9199 2.92969c62.3496 3.88965 118.84 -15.5908 169.49 -58.4404z" />
    <glyph glyph-name="six" unicode="6" horiz-adv-x="593" 
d="M467.1 402.29c46.0996 -46.1201 69.1709 -102.927 69.1709 -170.457c0 -68.8496 -22.7402 -126 -68.1904 -171.44c-45.46 -45.46 -102.61 -68.1797 -171.431 -68.1797c-70.7803 0 -128.261 22.0703 -172.411 66.2402c-44.1797 45.4404 -66.2393 103.24 -66.2393 173.38
v21.4297v9.73047c0 3.90039 0.330078 7.79004 0.980469 11.7002c0.629883 3.90039 1.59961 9.40039 2.90918 16.5605c1.29004 7.12988 3.55957 16.2197 6.81934 27.2695c3.23047 13.6396 7.46094 26.4492 12.6611 38.4688c5.19043 12.0195 10.7207 23.5391 16.5605 34.5889
l174.36 312.68h45.7803l-148.06 -269.84l40.9199 20.4502l41.8799 11.7002l43.8398 3.88965c68.1699 0 124.979 -22.7305 170.449 -68.1709zM439.831 88.6533c38.3096 38.2998 57.4688 86.0303 57.4785 143.17c0 53.2305 -19.4697 99.9902 -58.4395 140.271
c-38.96 39.6104 -86.3799 59.4199 -142.21 59.4199c-55.2002 0 -102.28 -19.4902 -141.25 -58.4502c-38.9697 -38.9502 -58.4395 -86.04 -58.4395 -141.23c0 -57.7998 18.8203 -105.54 56.4902 -143.18c38.3096 -38.3301 86.0293 -57.4697 143.189 -57.4697
c57.1299 0 104.86 19.1396 143.181 57.4697z" />
    <glyph glyph-name="seven" unicode="7" horiz-adv-x="588" 
d="M64.0898 695.5h488.98l-456.28 -695.5h-49.79l432.04 655.55h-414.95v39.9502z" />
    <glyph glyph-name="eight" unicode="8" horiz-adv-x="532" 
d="M420.47 321.45c31.8096 -33.79 47.7314 -76.3115 47.7412 -127.581c0 -57.7998 -18.8398 -105.2 -56.4902 -142.21c-38.3203 -37.0195 -86.6904 -55.5293 -145.141 -55.5293c-59.0996 0 -107.8 18.1797 -146.109 54.5498
c-38.3203 37.0195 -57.4707 84.7393 -57.4707 143.189c0 42.21 11.3496 79.54 34.0898 112.021c22.7197 31.8096 54.54 55.5195 95.46 71.0996c-32.4805 9.74023 -58.4502 30.5205 -77.9199 62.3408c-18.8496 30.5098 -28.25 62.9795 -28.25 97.4092
c0 52.5996 16.5498 95.46 49.6797 128.57c33.1104 33.7598 75.9707 50.6602 128.57 50.6602c53.2305 0 96.4404 -16.5498 129.551 -49.6797c33.1104 -33.1104 49.6699 -76.3105 49.6699 -129.551c0 -36.3799 -9.74023 -69.5098 -29.2207 -99.3594
c-18.8398 -29.2305 -45.4697 -49.3604 -79.8701 -60.4004c35.0596 -13 63.6396 -31.5195 85.71 -55.5293zM165.262 438.328c12.9805 -12.9902 27.7588 -23.7197 44.3291 -32.1396c16.5703 -8.44043 34.9004 -12.6602 55.04 -12.6602
c20.7803 0 39.4502 3.88965 56.0098 11.6797c16.5498 7.7998 31.3301 18.1699 44.3203 31.1797c26.6201 26.6104 39.9404 60.0508 39.9404 100.32c0 40.2598 -13.3203 73.6895 -39.9404 100.329c-26.6396 26.6299 -60.0693 39.9395 -100.329 39.9395
c-39.6299 0 -72.7402 -13.3096 -99.3701 -39.9395c-26.6299 -26.6396 -39.9395 -60.0693 -39.9395 -100.329c0 -38.96 13.3096 -71.7598 39.9395 -98.3799zM381.51 79.8789c31.7998 29.8496 47.7207 67.8408 47.7207 113.961c0 44.1602 -16.2305 81.8203 -48.7002 113
c-16.2305 16.2197 -33.9404 29.04 -53.0801 38.4697c-19.1699 9.40039 -40.1104 14.1201 -62.8301 14.1201c-22.0898 0 -42.5498 -4.71973 -61.3799 -14.1201c-18.8398 -9.42969 -36.3799 -21.9199 -52.5996 -37.5098c-32.4697 -32.4805 -48.7002 -70.4707 -48.7002 -113.98
c0 -44.1504 15.2598 -81.4902 45.79 -112.01c31.1699 -31.1602 70.1201 -46.7402 116.89 -46.7402c47.3896 0 86.3594 14.9199 116.89 44.8096z" />
    <glyph glyph-name="nine" unicode="9" horiz-adv-x="594" 
d="M467.08 632.19c45.4502 -45.4697 68.1904 -102.627 68.1904 -171.447c0 -13.6504 -0.830078 -27.7607 -2.44043 -42.3809c-1.62988 -14.6104 -4.37988 -29.4004 -8.28027 -44.3203c-3.25977 -12.9902 -7.31934 -25.4902 -12.1797 -37.5
c-4.87012 -12.0303 -10.5605 -23.8604 -17.0508 -35.5605l-167.95 -300.98h-46.75l142.62 258.14l-40.9004 -20.46l-41.8896 -11.6904l-43.8301 -3.88965c-68.8496 0 -125.989 22.4004 -171.439 67.21c-45.46 45.4404 -68.1797 102.601 -68.1797 171.431
c0 68.8398 22.7197 125.979 68.1797 171.449c45.4502 45.4404 102.601 68.1709 171.44 68.1709c68.8203 0 125.66 -22.7305 170.46 -68.1709zM438.83 318.533c38.3096 38.3096 57.4678 85.7188 57.4678 142.209c0 57.79 -18.8496 105.51 -56.4893 143.189
c-38.3301 38.2998 -86.0498 57.46 -143.189 57.46s-104.88 -19.1602 -143.18 -57.46c-38.3301 -38.3301 -57.4697 -86.0498 -57.4697 -143.189c0 -54.54 19.1396 -101.63 57.4697 -141.229c37.6504 -38.9697 85.3701 -58.4502 143.18 -58.4502
c56.4902 0 103.891 19.1504 142.211 57.4707z" />
    <glyph glyph-name="colon" unicode=":" horiz-adv-x="153" 
d="M76.1396 271.92c-7.15039 0 -14.6113 2.90918 -22.4111 8.74902c-5.83984 5.86035 -9.09961 13.6504 -9.72949 23.3906c0 17.5303 10.71 28.2402 32.1396 32.1504c16.2305 0 26.9404 -10.7305 32.1504 -32.1504c0 -21.4297 -10.7197 -32.1396 -32.1494 -32.1396z
M76.1387 48.8486c16.2305 0 26.9395 -10.7109 32.1494 -32.1406c0 -21.4297 -10.7197 -32.1494 -32.1494 -32.1494c-7.16016 0 -14.6104 2.92969 -22.4102 8.76953c-5.83984 5.83984 -9.09961 13.6396 -9.72949 23.3799c0 17.5303 10.71 28.2305 32.1396 32.1406z" />
    <glyph glyph-name="semicolon" unicode=";" horiz-adv-x="164" 
d="M75.4004 271.92c-7.16016 0 -14.6104 2.90918 -22.4102 8.74902c-5.83984 5.86035 -9.09961 13.6504 -9.73926 23.3906c0 17.5303 10.7197 28.2402 32.1494 32.1504c16.2197 0 26.9395 -10.7305 32.1299 -32.1504c0 -21.4297 -10.7002 -32.1396 -32.1299 -32.1396z
M87.0801 57.6191l34.0898 -14.6104l-93.5098 -152.93l-12.6602 8.75z" />
    <glyph glyph-name="less" unicode="&#x3c;" horiz-adv-x="339" 
d="M287.5 395.63v-43.8398l-173.4 -105.2l173.4 -105.21v-43.8203l-244.5 149.03z" />
    <glyph glyph-name="equal" unicode="=" horiz-adv-x="301" 
d="M260.14 168.65h-220.14v38.9697h220.14v-38.9697zM260.14 287.511h-220.14v39.9297h220.14v-39.9297z" />
    <glyph glyph-name="greater" unicode="&#x3e;" horiz-adv-x="339" 
d="M51 395.63l244.5 -149.04l-244.5 -149.03v43.8203l172.42 105.21l-172.42 105.2v43.8398z" />
    <glyph glyph-name="question" unicode="?" horiz-adv-x="479" 
d="M222.38 55.6602c18.8203 0 30.1797 -11.3604 34.0898 -34.0801c0 -22.7402 -11.3701 -34.0898 -34.0898 -34.0898c-18.8301 0 -30.1797 11.3496 -34.0898 34.0898c0 18.8096 11.3496 30.1797 34.0898 34.0801zM369.449 660.57
c37.0195 -26.6396 55.5293 -64.292 55.5596 -112.992c0 -39.6104 -14.6104 -75.9805 -43.8301 -109.101c-3.25977 -4.5498 -11.7002 -12.0195 -25.3301 -22.3994c-13.6396 -10.4102 -32.1396 -24.04 -55.5195 -40.9199l-81.8301 -59.4199
c-32.4805 -23.3701 -48.7002 -51.96 -48.7002 -85.7197c0 -15.5801 5.51953 -27.9297 16.5693 -37.0098c11.0303 -9.09961 24.6699 -13.6396 40.9199 -13.6396c24.0098 0 44.46 6.82031 61.3604 20.4502l23.3799 -32.1504
c-7.16016 -7.13965 -18.5 -14.2793 -34.0898 -21.4189l-22.4102 -5.84961l-28.2402 -1.9502c-25.3398 -1.94043 -48.3896 5.50977 -69.1699 22.4102c-20.7998 16.8799 -31.1699 39.9395 -31.1699 69.1592c0 42.21 22.7197 80.21 68.1699 113.979l82.7998 61.3604
c18.8203 14.2803 34.4102 26.3105 46.75 36.041c12.3301 9.73047 21.0996 17.8408 26.3096 24.3408c22.7197 26.6299 34.0898 53.8994 34.0898 81.8291c0 36.3496 -14.96 64.2793 -44.8096 83.7598c-26.6396 16.8799 -58.79 25.3301 -96.4404 25.3301
c-38.9697 0 -73.3994 -12.3398 -103.249 -37.0098c-17.54 -14.2998 -35.7305 -37.6699 -54.5605 -70.1299l-37.0098 16.5596c35.6904 86.3496 100.641 129.55 194.811 129.55c50.6504 0 92.5303 -11.6797 125.641 -35.0596z" />
    <glyph glyph-name="at" unicode="@" horiz-adv-x="836" 
d="M553.07 505.25l39.1289 -0.000976562v-224.94c0 -36.6904 29.8604 -66.5303 66.5303 -66.5303c29.6602 0 56.1104 20.2402 64.3105 49.2002c10.96 38.6504 14.4404 78.9102 10.3408 119.641c-15.3096 152.61 -142.54 274.9 -295.92 284.431
c-88.8799 5.58984 -173.45 -24.8701 -238.061 -85.5801c-64.6396 -60.75 -100.25 -143.06 -100.25 -231.729c0 -175.32 142.63 -317.96 317.95 -317.96h337.53v-39.1699h-337.53c-196.9 0 -357.101 160.2 -357.101 357.11c0 98.1699 41.0303 193.03 112.601 260.28
c72.5498 68.1904 167.35 102.41 267.29 96.1299c172.33 -10.7305 315.25 -148.12 332.47 -319.61c4.58984 -45.6602 0.679688 -90.8301 -11.6299 -134.25c-12.96 -45.7305 -54.8896 -77.6709 -101.989 -77.6709c-46.5898 0 -86.1699 30.3604 -100.189 72.3105
c-31.8604 -43.7197 -83.3105 -72.3096 -141.431 -72.3096c-96.5596 0 -175.119 78.5596 -175.119 175.119c0 96.5498 78.5596 175.12 175.119 175.12c54.8398 0 103.81 -25.3896 135.949 -64.9697v45.3799zM417.119 213.759c74.96 0 135.95 61 135.95 135.96
c0 74.9697 -60.9902 135.96 -135.95 135.96c-74.9697 0 -135.97 -60.9902 -135.97 -135.96c0 -74.96 61 -135.96 135.97 -135.96z" />
    <glyph glyph-name="A" unicode="A" horiz-adv-x="577" 
d="M287.61 720.3l278.589 -717.9h-39.9404l-79.8799 208.46h-316.56l-80.8496 -208.46h-38.9697zM145.399 250.8h284.44l-142.23 368.2z" />
    <glyph glyph-name="A" unicode="&#xc5;" horiz-adv-x="577" 
d="M287.61 720.3l278.589 -717.9h-39.9404l-79.8799 208.46h-316.56l-80.8496 -208.46h-38.9697zM145.399 250.8h284.44l-142.23 368.2z" />
    <glyph glyph-name="A" unicode="&#xc4;" horiz-adv-x="577" 
d="M287.61 720.3l278.589 -717.9h-39.9404l-79.8799 208.46h-316.56l-80.8496 -208.46h-38.9697zM145.399 250.8h284.44l-142.23 368.2z" />
    <glyph glyph-name="A" unicode="&#xc3;" horiz-adv-x="577" 
d="M287.61 720.3l278.589 -717.9h-39.9404l-79.8799 208.46h-316.56l-80.8496 -208.46h-38.9697zM145.399 250.8h284.44l-142.23 368.2z" />
    <glyph glyph-name="A" unicode="&#xc2;" horiz-adv-x="577" 
d="M287.61 720.3l278.589 -717.9h-39.9404l-79.8799 208.46h-316.56l-80.8496 -208.46h-38.9697zM145.399 250.8h284.44l-142.23 368.2z" />
    <glyph glyph-name="A" unicode="&#xc1;" horiz-adv-x="577" 
d="M287.61 720.3l278.589 -717.9h-39.9404l-79.8799 208.46h-316.56l-80.8496 -208.46h-38.9697zM145.399 250.8h284.44l-142.23 368.2z" />
    <glyph glyph-name="A" unicode="&#xc0;" horiz-adv-x="577" 
d="M287.61 720.3l278.589 -717.9h-39.9404l-79.8799 208.46h-316.56l-80.8496 -208.46h-38.9697zM145.399 250.8h284.44l-142.23 368.2z" />
    <glyph glyph-name="B" unicode="B" horiz-adv-x="537" 
d="M460.58 330.66c29.2197 -34.4199 43.8291 -76.6191 43.8291 -126.629c0 -59.7598 -21.0996 -108.13 -63.3096 -145.149c-42.2305 -37.6602 -93.8506 -56.4902 -154.881 -56.4902h-217.22v695.49h169.49c53.8799 0 96.7598 -13.9805 128.58 -41.8809
c33.75 -29.8799 50.6504 -71.4502 50.6504 -124.681c0 -61.04 -25.0195 -105.85 -75.0098 -134.42c48.7002 -9.74023 87.9805 -31.8203 117.87 -66.2402zM241.409 657.971l-133.461 -0.000976562v-253.27h139.3c37.6504 0 68.8203 11.6904 93.5107 35.0703
c24.6699 23.3701 37.0098 53.9004 37.0098 91.5605c0 38.9697 -13 69.4795 -38.96 91.5596c-26.6299 23.3799 -59.0996 35.0801 -97.3994 35.0801zM412.849 87.1699c35.0703 29.8398 52.6006 68.8105 52.6006 116.891c0 48.7002 -17.8604 87.9697 -53.5703 117.85
c-33.1201 28.5596 -74.6797 42.8594 -124.689 42.8594h-179.22v-322.43h179.22c49.3496 0 91.2393 14.9502 125.659 44.8301z" />
    <glyph glyph-name="C" unicode="C" horiz-adv-x="670" 
d="M394.1 668.1c-175.32 0 -317.949 -142.599 -317.949 -317.919s142.63 -317.94 317.95 -317.94c99.5303 0 177.29 28.8799 231.13 85.8496c4.92969 5.20996 9.64941 10.6299 14.2295 16.1699v-56.4902c-60.5098 -55.9697 -142.75 -84.7002 -245.36 -84.7002
c-196.9 0 -357.101 160.2 -357.101 357.101s160.19 357.101 357.101 357.101c102.61 0 184.851 -28.7305 245.36 -84.7002v-56.4902c-4.58008 5.54004 -9.31055 10.96 -14.2305 16.1602c-53.8398 56.9697 -131.6 85.8594 -231.13 85.8594z" />
    <glyph glyph-name="C" unicode="&#xc7;" horiz-adv-x="670" 
d="M394.1 668.1c-175.32 0 -317.949 -142.599 -317.949 -317.919s142.63 -317.94 317.95 -317.94c99.5303 0 177.29 28.8799 231.13 85.8496c4.92969 5.20996 9.64941 10.6299 14.2295 16.1699v-56.4902c-60.5098 -55.9697 -142.75 -84.7002 -245.36 -84.7002
c-196.9 0 -357.101 160.2 -357.101 357.101s160.19 357.101 357.101 357.101c102.61 0 184.851 -28.7305 245.36 -84.7002v-56.4902c-4.58008 5.54004 -9.31055 10.96 -14.2305 16.1602c-53.8398 56.9697 -131.6 85.8594 -231.13 85.8594z" />
    <glyph glyph-name="D" unicode="D" horiz-adv-x="652" 
d="M528.76 592.7c55.1904 -65.5996 82.7988 -146.109 82.7891 -241.579c0 -96.1104 -27.2695 -177.29 -81.8291 -243.53c-58.4404 -70.1104 -134.74 -105.19 -228.9 -105.19h-231.82v695.5h231.82c93.5303 0 169.5 -35.0498 227.94 -105.2zM486.878 122.22
c56.4902 57.1396 84.7402 133.45 84.7305 228.9c0 85.0703 -23.71 156.5 -71.1104 214.3c-50.6396 62.3398 -117.199 93.5098 -199.68 93.5098h-192.86v-616.6h192.86c71.4404 0 133.46 26.6396 186.06 79.8896z" />
    <glyph glyph-name="E" unicode="E" horiz-adv-x="435" 
d="M403.11 657.97h-294.17v-253.27h294.17v-42.8604h-294.17v-319.5h294.17v-39.9404h-334.11v695.5h334.11v-39.9297z" />
    <glyph glyph-name="E" unicode="&#xcb;" horiz-adv-x="435" 
d="M403.11 657.97h-294.17v-253.27h294.17v-42.8604h-294.17v-319.5h294.17v-39.9404h-334.11v695.5h334.11v-39.9297z" />
    <glyph glyph-name="E" unicode="&#xca;" horiz-adv-x="435" 
d="M403.11 657.97h-294.17v-253.27h294.17v-42.8604h-294.17v-319.5h294.17v-39.9404h-334.11v695.5h334.11v-39.9297z" />
    <glyph glyph-name="E" unicode="&#xc9;" horiz-adv-x="435" 
d="M403.11 657.97h-294.17v-253.27h294.17v-42.8604h-294.17v-319.5h294.17v-39.9404h-334.11v695.5h334.11v-39.9297z" />
    <glyph glyph-name="E" unicode="&#xc8;" horiz-adv-x="435" 
d="M403.11 657.97h-294.17v-253.27h294.17v-42.8604h-294.17v-319.5h294.17v-39.9404h-334.11v695.5h334.11v-39.9297z" />
    <glyph glyph-name="F" unicode="F" horiz-adv-x="391" 
d="M370.97 657.97l-263 -0.000976562v-253.27h263v-39.9297h-263v-362.37h-38.9697v695.5h301.97v-39.9297z" />
    <glyph glyph-name="G" unicode="G" horiz-adv-x="773" 
d="M481.01 337.88l269.89 0.0410156c-6.5 -191.24 -163.99 -344.851 -356.8 -344.851c-196.9 0 -357.101 160.2 -357.101 357.101s160.19 357.101 357.101 357.101c102.61 0 184.851 -28.7305 245.36 -84.7002v-56.4902c-4.58008 5.54004 -9.31055 10.96 -14.2305 16.1602
c-53.8398 56.9697 -131.6 85.8594 -231.13 85.8594c-175.32 0 -317.95 -142.62 -317.95 -317.94c0 -175.33 142.63 -317.95 317.95 -317.95c157.78 0 288.94 115.59 313.61 266.5h-226.7v39.1699z" />
    <glyph glyph-name="H" unicode="H" horiz-adv-x="600" 
d="M490.77 697.9h39.9502v-695.5h-39.9502v362.37h-382.8v-362.37h-38.9697v695.5h38.9697v-293.2h382.8v293.2z" />
    <glyph glyph-name="I" unicode="I" horiz-adv-x="177" 
d="M107.97 2.40039h-38.9697v695.5h38.9697v-695.5z" />
    <glyph glyph-name="I" unicode="&#xcf;" horiz-adv-x="177" 
d="M107.97 2.40039h-38.9697v695.5h38.9697v-695.5z" />
    <glyph glyph-name="I" unicode="&#xce;" horiz-adv-x="177" 
d="M107.97 2.40039h-38.9697v695.5h38.9697v-695.5z" />
    <glyph glyph-name="I" unicode="&#xcd;" horiz-adv-x="177" 
d="M107.97 2.40039h-38.9697v695.5h38.9697v-695.5z" />
    <glyph glyph-name="I" unicode="&#xcc;" horiz-adv-x="177" 
d="M107.97 2.40039h-38.9697v695.5h38.9697v-695.5z" />
    <glyph glyph-name="J" unicode="J" horiz-adv-x="301" 
d="M192.22 697.9h39.9297v-557.17c0 -97.4102 -37.3398 -146.11 -112.01 -146.11c-48.7002 0 -84.4199 21.0898 -107.14 63.3096l34.0898 21.4297c16.2197 -29.8799 40.2598 -44.8096 72.0801 -44.8096c48.7002 0 73.0498 36.04 73.0498 108.12v555.23z" />
    <glyph glyph-name="K" unicode="K" horiz-adv-x="513" 
d="M143.02 365.74l362.359 -363.341h-55.5303l-335.08 336.07l-5.83984 -5.84961v-330.22h-39.9297v695.5h39.9297v-308.79l310.73 308.79h56.5z" />
    <glyph glyph-name="L" unicode="L" horiz-adv-x="314" 
d="M107.97 42.3398h195.79v-39.9404h-234.76v695.5h38.9697v-655.56z" />
    <glyph glyph-name="M" unicode="M" horiz-adv-x="874" 
d="M673.58 719.34l181.172 -716.941h-40.9004l-148.07 584.45l-228.9 -601.97l-228.91 602.95l-149.03 -585.43h-39.9404l181.18 715.95l236.7 -620.47z" />
    <glyph glyph-name="N" unicode="N" horiz-adv-x="700" 
d="M589.17 697.9l39.9307 -0.000976562v-707.18l-520.15 601.98v-590.3h-38.9502v700.38l519.17 -608.79v603.91z" />
    <glyph glyph-name="N" unicode="&#xd1;" horiz-adv-x="700" 
d="M589.17 697.9l39.9307 -0.000976562v-707.18l-520.15 601.98v-590.3h-38.9502v700.38l519.17 -608.79v603.91z" />
    <glyph glyph-name="O" unicode="O" horiz-adv-x="789" 
d="M394.1 707.27c196.92 0 357.101 -160.2 357.101 -357.101s-160.2 -357.101 -357.101 -357.101s-357.101 160.2 -357.101 357.101s160.19 357.101 357.101 357.101zM394.101 32.21c175.32 0 317.939 142.62 317.939 317.95c0 175.32 -142.63 317.94 -317.939 317.94
c-175.32 0 -317.95 -142.62 -317.95 -317.94c0 -175.33 142.63 -317.95 317.95 -317.95z" />
    <glyph glyph-name="O" unicode="&#xd8;" horiz-adv-x="789" 
d="M394.1 707.27c196.92 0 357.101 -160.2 357.101 -357.101s-160.2 -357.101 -357.101 -357.101s-357.101 160.2 -357.101 357.101s160.19 357.101 357.101 357.101zM394.101 32.21c175.32 0 317.939 142.62 317.939 317.95c0 175.32 -142.63 317.94 -317.939 317.94
c-175.32 0 -317.95 -142.62 -317.95 -317.94c0 -175.33 142.63 -317.95 317.95 -317.95z" />
    <glyph glyph-name="O" unicode="&#xd6;" horiz-adv-x="789" 
d="M394.1 707.27c196.92 0 357.101 -160.2 357.101 -357.101s-160.2 -357.101 -357.101 -357.101s-357.101 160.2 -357.101 357.101s160.19 357.101 357.101 357.101zM394.101 32.21c175.32 0 317.939 142.62 317.939 317.95c0 175.32 -142.63 317.94 -317.939 317.94
c-175.32 0 -317.95 -142.62 -317.95 -317.94c0 -175.33 142.63 -317.95 317.95 -317.95z" />
    <glyph glyph-name="O" unicode="&#xd5;" horiz-adv-x="789" 
d="M394.1 707.27c196.92 0 357.101 -160.2 357.101 -357.101s-160.2 -357.101 -357.101 -357.101s-357.101 160.2 -357.101 357.101s160.19 357.101 357.101 357.101zM394.101 32.21c175.32 0 317.939 142.62 317.939 317.95c0 175.32 -142.63 317.94 -317.939 317.94
c-175.32 0 -317.95 -142.62 -317.95 -317.94c0 -175.33 142.63 -317.95 317.95 -317.95z" />
    <glyph glyph-name="O" unicode="&#xd4;" horiz-adv-x="789" 
d="M394.1 707.27c196.92 0 357.101 -160.2 357.101 -357.101s-160.2 -357.101 -357.101 -357.101s-357.101 160.2 -357.101 357.101s160.19 357.101 357.101 357.101zM394.101 32.21c175.32 0 317.939 142.62 317.939 317.95c0 175.32 -142.63 317.94 -317.939 317.94
c-175.32 0 -317.95 -142.62 -317.95 -317.94c0 -175.33 142.63 -317.95 317.95 -317.95z" />
    <glyph glyph-name="O" unicode="&#xd3;" horiz-adv-x="789" 
d="M394.1 707.27c196.92 0 357.101 -160.2 357.101 -357.101s-160.2 -357.101 -357.101 -357.101s-357.101 160.2 -357.101 357.101s160.19 357.101 357.101 357.101zM394.101 32.21c175.32 0 317.939 142.62 317.939 317.95c0 175.32 -142.63 317.94 -317.939 317.94
c-175.32 0 -317.95 -142.62 -317.95 -317.94c0 -175.33 142.63 -317.95 317.95 -317.95z" />
    <glyph glyph-name="O" unicode="&#xd2;" horiz-adv-x="789" 
d="M394.1 707.27c196.92 0 357.101 -160.2 357.101 -357.101s-160.2 -357.101 -357.101 -357.101s-357.101 160.2 -357.101 357.101s160.19 357.101 357.101 357.101zM394.101 32.21c175.32 0 317.939 142.62 317.939 317.95c0 175.32 -142.63 317.94 -317.939 317.94
c-175.32 0 -317.95 -142.62 -317.95 -317.94c0 -175.33 142.63 -317.95 317.95 -317.95z" />
    <glyph glyph-name="P" unicode="P" horiz-adv-x="451" 
d="M372.91 651.15c36.3701 -31.1699 54.5488 -73.0703 54.5488 -125.66c0 -53.2598 -18.1797 -95.46 -54.5498 -126.63c-36.3701 -32.4805 -81.1797 -48.7002 -134.42 -48.7002h-130.52v-347.76h-38.9697v695.5h169.49c53.2402 0 98.0498 -15.5801 134.42 -46.75z
M344.659 425.15c28.5801 24.6699 42.8594 58.1084 42.8496 100.339c0 42.21 -14.9502 75.3203 -44.8105 99.3604c-26.6299 22.0703 -61.6895 33.1201 -105.199 33.1201h-129.55v-267.88h129.55c42.8604 0 78.5703 11.6904 107.16 35.0605z" />
    <glyph glyph-name="Q" unicode="Q" horiz-adv-x="789" 
d="M394.1 707.27c196.9 0 357.101 -160.2 357.101 -357.101s-160.2 -357.101 -357.101 -357.101s-357.101 160.2 -357.101 357.101s160.19 357.101 357.101 357.101zM394.1 32.21c175.32 0 317.96 142.62 317.96 317.95c0 175.32 -142.64 317.94 -317.96 317.94
s-317.95 -142.62 -317.95 -317.94c0 -175.33 142.63 -317.95 317.95 -317.95zM600.119 -91.0898h-205.52v39.9297h205.52v-39.9297z" />
    <glyph glyph-name="R" unicode="R" horiz-adv-x="476" 
d="M227.77 350.16l223.061 -347.758h-46.75l-221.12 347.76h-75v-347.76h-38.96v695.5h160.72c25.9697 0 50.6494 -3.74023 74.0293 -11.1904c23.3799 -7.48047 43.5098 -18.5205 60.3994 -33.1309c16.8604 -14.6104 30.3506 -32.6299 40.4102 -54.0596
c10.0801 -21.4404 15.1104 -46.1309 15.1104 -74.0312c0 -30.5303 -4.7002 -56.8398 -14.1201 -78.8994c-9.41992 -22.0898 -22.7295 -40.2695 -39.9297 -54.5498c-17.2197 -14.2998 -37.5098 -24.8398 -60.8896 -31.6602s-49.04 -10.2207 -76.96 -10.2207zM107.98 657.973
l0.000976562 -267.882h131.5c41.5498 0 75.1602 11.6904 100.82 35.0605c25.6504 23.3799 38.4707 57.1396 38.4707 101.3c0 22.0801 -3.90039 41.4004 -11.6807 57.9707c-7.80957 16.5703 -18.5 30.21 -32.1504 40.9199
c-13.6504 10.7002 -29.5703 18.8105 -47.7402 24.3408c-18.1797 5.50977 -37.6602 8.29004 -58.4404 8.29004h-120.78z" />
    <glyph glyph-name="S" unicode="S" horiz-adv-x="473" 
d="M378.63 320.93c37.6504 -37.0098 56.4902 -83.1328 56.5303 -138.343c0 -88.3301 -37.3398 -146.46 -112.02 -174.36c-25.3203 -9.08984 -55.2002 -13.6396 -89.6201 -13.6396c-106.5 0 -175.01 50.3096 -205.52 150.979l39.9297 13.6396
c22.7197 -83.1504 77.9199 -124.69 165.59 -124.69c49.9902 0 89.29 12.3203 117.86 37.0205c29.2305 25.3203 43.8203 62.3301 43.8203 111.03c0 46.1104 -17.2002 84.4102 -51.6201 114.94c-9.09961 8.44043 -23.0498 17.8604 -41.8799 28.25
c-18.8496 10.3896 -42.8594 22.0898 -72.0791 35.0801c-55.21 24.6699 -92.8799 46.0996 -113 64.2793c-33.7803 29.2197 -50.6602 67.8594 -50.6602 115.93c0 48.04 17.2002 86.6904 51.6299 115.91c33.7598 29.8701 75.3096 44.8105 124.67 44.8105
c81.8301 0 139.61 -30.5195 173.38 -91.5498l-37.9902 -16.5703c-12.9902 21.4502 -28.5703 37.3506 -46.75 47.7402c-22.7305 14.2803 -52.2705 21.4404 -88.6406 21.4404c-38.3203 0 -70.1104 -10.7197 -95.4502 -32.1494
c-27.2803 -22.75 -40.9199 -52.6104 -40.9199 -89.6201c0 -33.1396 14.29 -62.0293 42.8604 -86.6992c16.2402 -12.9902 48.7002 -30.5303 97.4102 -52.5898c30.5098 -13.6396 56.8096 -27.1201 78.8994 -40.4297c22.0596 -13.2998 39.9297 -26.7695 53.5693 -40.4092z" />
    <glyph glyph-name="T" unicode="T" horiz-adv-x="354" 
d="M3 697.9h347.739v-39.9297h-153.92v-655.57h-39.9297v655.57h-153.89v39.9297z" />
    <glyph glyph-name="U" unicode="U" horiz-adv-x="534" 
d="M428.34 697.9l39.9209 -0.000976562v-522.09c0 -56.5098 -20.46 -101.649 -61.3799 -135.399c-35.71 -29.8701 -82.7803 -44.8105 -141.23 -44.8105c-56.4902 0 -103.58 15.2402 -141.23 45.7803c-39.6299 33.1104 -59.4199 77.9199 -59.4199 134.42v522.1h38.96v-522.1
c0 -44.7998 16.2197 -79.8594 48.7002 -105.199c29.8701 -23.3799 67.5303 -35.0596 113 -35.0596c44.8096 0 82.46 12 113 36.04c33.1201 25.9697 49.6797 60.7002 49.6797 104.22v522.1z" />
    <glyph glyph-name="U" unicode="&#xdc;" horiz-adv-x="534" 
d="M428.34 697.9l39.9209 -0.000976562v-522.09c0 -56.5098 -20.46 -101.649 -61.3799 -135.399c-35.71 -29.8701 -82.7803 -44.8105 -141.23 -44.8105c-56.4902 0 -103.58 15.2402 -141.23 45.7803c-39.6299 33.1104 -59.4199 77.9199 -59.4199 134.42v522.1h38.96v-522.1
c0 -44.7998 16.2197 -79.8594 48.7002 -105.199c29.8701 -23.3799 67.5303 -35.0596 113 -35.0596c44.8096 0 82.46 12 113 36.04c33.1201 25.9697 49.6797 60.7002 49.6797 104.22v522.1z" />
    <glyph glyph-name="U" unicode="&#xdb;" horiz-adv-x="534" 
d="M428.34 697.9l39.9209 -0.000976562v-522.09c0 -56.5098 -20.46 -101.649 -61.3799 -135.399c-35.71 -29.8701 -82.7803 -44.8105 -141.23 -44.8105c-56.4902 0 -103.58 15.2402 -141.23 45.7803c-39.6299 33.1104 -59.4199 77.9199 -59.4199 134.42v522.1h38.96v-522.1
c0 -44.7998 16.2197 -79.8594 48.7002 -105.199c29.8701 -23.3799 67.5303 -35.0596 113 -35.0596c44.8096 0 82.46 12 113 36.04c33.1201 25.9697 49.6797 60.7002 49.6797 104.22v522.1z" />
    <glyph glyph-name="U" unicode="&#xda;" horiz-adv-x="534" 
d="M428.34 697.9l39.9209 -0.000976562v-522.09c0 -56.5098 -20.46 -101.649 -61.3799 -135.399c-35.71 -29.8701 -82.7803 -44.8105 -141.23 -44.8105c-56.4902 0 -103.58 15.2402 -141.23 45.7803c-39.6299 33.1104 -59.4199 77.9199 -59.4199 134.42v522.1h38.96v-522.1
c0 -44.7998 16.2197 -79.8594 48.7002 -105.199c29.8701 -23.3799 67.5303 -35.0596 113 -35.0596c44.8096 0 82.46 12 113 36.04c33.1201 25.9697 49.6797 60.7002 49.6797 104.22v522.1z" />
    <glyph glyph-name="U" unicode="&#xd9;" horiz-adv-x="534" 
d="M428.34 697.9l39.9209 -0.000976562v-522.09c0 -56.5098 -20.46 -101.649 -61.3799 -135.399c-35.71 -29.8701 -82.7803 -44.8105 -141.23 -44.8105c-56.4902 0 -103.58 15.2402 -141.23 45.7803c-39.6299 33.1104 -59.4199 77.9199 -59.4199 134.42v522.1h38.96v-522.1
c0 -44.7998 16.2197 -79.8594 48.7002 -105.199c29.8701 -23.3799 67.5303 -35.0596 113 -35.0596c44.8096 0 82.46 12 113 36.04c33.1201 25.9697 49.6797 60.7002 49.6797 104.22v522.1z" />
    <glyph glyph-name="V" unicode="V" horiz-adv-x="475" 
d="M419.19 697.9h41.8896l-225.01 -707.18l-223.07 707.18h40.9199l182.15 -574.69z" />
    <glyph glyph-name="W" unicode="W" horiz-adv-x="823" 
d="M768.92 697.9h40.9004l-225.01 -705.23l-173.38 583.47l-174.36 -583.47l-223.07 705.23h38.9697l182.15 -568.86l176.31 581.52l175.34 -581.52z" />
    <glyph glyph-name="X" unicode="X" horiz-adv-x="491" 
d="M270.23 358.93l204.56 -356.53h-45.79l-185.08 322.44l-183.11 -322.44h-44.8096l204.56 359.44l-192.88 336.06h45.7803l171.44 -300.98l172.41 300.98h45.7803z" />
    <glyph glyph-name="Y" unicode="Y" horiz-adv-x="447" 
d="M395.6 697.9h45.7812l-198.71 -347.74v-347.76h-39.9404v347.76l-197.73 347.74h45.7695l171.43 -300.98z" />
    <glyph glyph-name="Y" unicode="&#x178;" horiz-adv-x="447" 
d="M395.6 697.9h45.7812l-198.71 -347.74v-347.76h-39.9404v347.76l-197.73 347.74h45.7695l171.43 -300.98z" />
    <glyph glyph-name="Y" unicode="&#xdd;" horiz-adv-x="447" 
d="M395.6 697.9h45.7812l-198.71 -347.74v-347.76h-39.9404v347.76l-197.73 347.74h45.7695l171.43 -300.98z" />
    <glyph glyph-name="Z" unicode="Z" horiz-adv-x="499" 
d="M483.47 697.9l-399.369 -655.56h397.43v-39.9404h-468.53l398.39 654.59h-375.01v40.9102h447.09z" />
    <glyph glyph-name="bracketleft" unicode="[" horiz-adv-x="234" 
d="M109.94 -21.2803l68.1797 -0.000976562v-33.1299h-108.12v780.24h105.21v-34.0898h-65.2695v-713.02z" />
    <glyph glyph-name="backslash" unicode="\" horiz-adv-x="336" 
d="M88.9697 685.9l198.7 -695.5h-37.9902l-199.68 695.5h38.9697z" />
    <glyph glyph-name="bracketright" unicode="]" horiz-adv-x="234" 
d="M57.9102 725.83l105.21 0.000976562v-780.24h-108.12v33.1299h69.1504v713.02h-66.2402v34.0898z" />
    <glyph glyph-name="underscore" unicode="_" horiz-adv-x="499" 
d="M428.46 -102.11h-358.46v35.0703h358.46v-35.0703z" />
    <glyph glyph-name="a" unicode="a" horiz-adv-x="506" 
d="M406.19 407.89l39.9609 0.000976562v-402.28h-39.9404v69.1602c-42.21 -50.6504 -95.79 -75.9805 -160.73 -75.9805c-58.4404 0 -107.48 19.79 -147.08 59.4199c-40.2803 40.25 -60.4004 89.6104 -60.4004 148.051c0 58.4502 19.79 107.48 59.4199 147.08
c40.25 40.2598 89.6104 60.3896 148.051 60.3896c64.29 0 117.87 -25.3203 160.72 -75.9707v70.1299zM364.312 86.4609c33.1104 33.1201 49.6816 73.0508 49.6816 119.82c0 46.0996 -16.5703 85.7197 -49.6807 118.84c-33.1201 33.1104 -72.7402 49.6699 -118.84 49.6699
c-46.7598 0 -86.3701 -16.2402 -118.84 -48.7002c-33.1104 -33.1201 -49.6807 -73.0703 -49.6807 -119.811c0 -46.1299 16.5498 -85.7295 49.6797 -118.85c33.1299 -33.1104 72.7295 -49.6699 118.84 -49.6699c46.7598 0 86.3594 16.2305 118.84 48.7002z" />
    <glyph glyph-name="a" unicode="&#xe5;" horiz-adv-x="506" 
d="M406.19 407.89l39.9609 0.000976562v-402.28h-39.9404v69.1602c-42.21 -50.6504 -95.79 -75.9805 -160.73 -75.9805c-58.4404 0 -107.48 19.79 -147.08 59.4199c-40.2803 40.25 -60.4004 89.6104 -60.4004 148.051c0 58.4502 19.79 107.48 59.4199 147.08
c40.25 40.2598 89.6104 60.3896 148.051 60.3896c64.29 0 117.87 -25.3203 160.72 -75.9707v70.1299zM364.312 86.4609c33.1104 33.1201 49.6816 73.0508 49.6816 119.82c0 46.0996 -16.5703 85.7197 -49.6807 118.84c-33.1201 33.1104 -72.7402 49.6699 -118.84 49.6699
c-46.7598 0 -86.3701 -16.2402 -118.84 -48.7002c-33.1104 -33.1201 -49.6807 -73.0703 -49.6807 -119.811c0 -46.1299 16.5498 -85.7295 49.6797 -118.85c33.1299 -33.1104 72.7295 -49.6699 118.84 -49.6699c46.7598 0 86.3594 16.2305 118.84 48.7002z" />
    <glyph glyph-name="a" unicode="&#xe4;" horiz-adv-x="506" 
d="M406.19 407.89l39.9609 0.000976562v-402.28h-39.9404v69.1602c-42.21 -50.6504 -95.79 -75.9805 -160.73 -75.9805c-58.4404 0 -107.48 19.79 -147.08 59.4199c-40.2803 40.25 -60.4004 89.6104 -60.4004 148.051c0 58.4502 19.79 107.48 59.4199 147.08
c40.25 40.2598 89.6104 60.3896 148.051 60.3896c64.29 0 117.87 -25.3203 160.72 -75.9707v70.1299zM364.312 86.4609c33.1104 33.1201 49.6816 73.0508 49.6816 119.82c0 46.0996 -16.5703 85.7197 -49.6807 118.84c-33.1201 33.1104 -72.7402 49.6699 -118.84 49.6699
c-46.7598 0 -86.3701 -16.2402 -118.84 -48.7002c-33.1104 -33.1201 -49.6807 -73.0703 -49.6807 -119.811c0 -46.1299 16.5498 -85.7295 49.6797 -118.85c33.1299 -33.1104 72.7295 -49.6699 118.84 -49.6699c46.7598 0 86.3594 16.2305 118.84 48.7002z" />
    <glyph glyph-name="a" unicode="&#xe3;" horiz-adv-x="506" 
d="M406.19 407.89l39.9609 0.000976562v-402.28h-39.9404v69.1602c-42.21 -50.6504 -95.79 -75.9805 -160.73 -75.9805c-58.4404 0 -107.48 19.79 -147.08 59.4199c-40.2803 40.25 -60.4004 89.6104 -60.4004 148.051c0 58.4502 19.79 107.48 59.4199 147.08
c40.25 40.2598 89.6104 60.3896 148.051 60.3896c64.29 0 117.87 -25.3203 160.72 -75.9707v70.1299zM364.312 86.4609c33.1104 33.1201 49.6816 73.0508 49.6816 119.82c0 46.0996 -16.5703 85.7197 -49.6807 118.84c-33.1201 33.1104 -72.7402 49.6699 -118.84 49.6699
c-46.7598 0 -86.3701 -16.2402 -118.84 -48.7002c-33.1104 -33.1201 -49.6807 -73.0703 -49.6807 -119.811c0 -46.1299 16.5498 -85.7295 49.6797 -118.85c33.1299 -33.1104 72.7295 -49.6699 118.84 -49.6699c46.7598 0 86.3594 16.2305 118.84 48.7002z" />
    <glyph glyph-name="a" unicode="&#xe2;" horiz-adv-x="506" 
d="M406.19 407.89l39.9609 0.000976562v-402.28h-39.9404v69.1602c-42.21 -50.6504 -95.79 -75.9805 -160.73 -75.9805c-58.4404 0 -107.48 19.79 -147.08 59.4199c-40.2803 40.25 -60.4004 89.6104 -60.4004 148.051c0 58.4502 19.79 107.48 59.4199 147.08
c40.25 40.2598 89.6104 60.3896 148.051 60.3896c64.29 0 117.87 -25.3203 160.72 -75.9707v70.1299zM364.312 86.4609c33.1104 33.1201 49.6816 73.0508 49.6816 119.82c0 46.0996 -16.5703 85.7197 -49.6807 118.84c-33.1201 33.1104 -72.7402 49.6699 -118.84 49.6699
c-46.7598 0 -86.3701 -16.2402 -118.84 -48.7002c-33.1104 -33.1201 -49.6807 -73.0703 -49.6807 -119.811c0 -46.1299 16.5498 -85.7295 49.6797 -118.85c33.1299 -33.1104 72.7295 -49.6699 118.84 -49.6699c46.7598 0 86.3594 16.2305 118.84 48.7002z" />
    <glyph glyph-name="a" unicode="&#xe1;" horiz-adv-x="506" 
d="M406.19 407.89l39.9609 0.000976562v-402.28h-39.9404v69.1602c-42.21 -50.6504 -95.79 -75.9805 -160.73 -75.9805c-58.4404 0 -107.48 19.79 -147.08 59.4199c-40.2803 40.25 -60.4004 89.6104 -60.4004 148.051c0 58.4502 19.79 107.48 59.4199 147.08
c40.25 40.2598 89.6104 60.3896 148.051 60.3896c64.29 0 117.87 -25.3203 160.72 -75.9707v70.1299zM364.312 86.4609c33.1104 33.1201 49.6816 73.0508 49.6816 119.82c0 46.0996 -16.5703 85.7197 -49.6807 118.84c-33.1201 33.1104 -72.7402 49.6699 -118.84 49.6699
c-46.7598 0 -86.3701 -16.2402 -118.84 -48.7002c-33.1104 -33.1201 -49.6807 -73.0703 -49.6807 -119.811c0 -46.1299 16.5498 -85.7295 49.6797 -118.85c33.1299 -33.1104 72.7295 -49.6699 118.84 -49.6699c46.7598 0 86.3594 16.2305 118.84 48.7002z" />
    <glyph glyph-name="a" unicode="&#xe0;" horiz-adv-x="506" 
d="M406.19 407.89l39.9609 0.000976562v-402.28h-39.9404v69.1602c-42.21 -50.6504 -95.79 -75.9805 -160.73 -75.9805c-58.4404 0 -107.48 19.79 -147.08 59.4199c-40.2803 40.25 -60.4004 89.6104 -60.4004 148.051c0 58.4502 19.79 107.48 59.4199 147.08
c40.25 40.2598 89.6104 60.3896 148.051 60.3896c64.29 0 117.87 -25.3203 160.72 -75.9707v70.1299zM364.312 86.4609c33.1104 33.1201 49.6816 73.0508 49.6816 119.82c0 46.0996 -16.5703 85.7197 -49.6807 118.84c-33.1201 33.1104 -72.7402 49.6699 -118.84 49.6699
c-46.7598 0 -86.3701 -16.2402 -118.84 -48.7002c-33.1104 -33.1201 -49.6807 -73.0703 -49.6807 -119.811c0 -46.1299 16.5498 -85.7295 49.6797 -118.85c33.1299 -33.1104 72.7295 -49.6699 118.84 -49.6699c46.7598 0 86.3594 16.2305 118.84 48.7002z" />
    <glyph glyph-name="b" unicode="b" horiz-adv-x="510" 
d="M410.65 354.33c40.2598 -40.2803 60.3887 -89.6084 60.3887 -148.049c0 -58.4502 -19.8203 -107.48 -59.4199 -147.091c-40.2695 -40.2803 -89.6191 -60.4004 -148.06 -60.4004c-66.8896 0 -121.76 26.9404 -164.62 80.8506v-74.0303h-39.9404v720.81h39.9404v-393.52
c42.2002 53.8896 97.0703 80.8496 164.62 80.8496c58.4404 0 107.471 -19.8096 147.091 -59.4199zM382.399 86.4619c33.1104 33.1201 49.6699 73.0508 49.6699 119.82c0 46.0996 -16.5596 85.7197 -49.6699 118.84c-33.1299 33.1104 -72.7402 49.6699 -118.84 49.6699
c-46.7598 0 -86.3799 -16.2402 -118.84 -48.7002c-33.1201 -33.1201 -49.6797 -73.0703 -49.6797 -119.811c0 -46.1299 16.5596 -85.7295 49.6797 -118.85c33.1201 -33.1104 72.7197 -49.6699 118.84 -49.6699c46.7598 0 86.3594 16.2305 118.84 48.7002z" />
    <glyph glyph-name="c" unicode="c" horiz-adv-x="413" 
d="M246.54 368.54c-93.4004 0 -169.381 -76.0088 -169.381 -169.409s76 -169.391 169.4 -169.391c53.25 0 94.6699 15.2803 123.13 45.3799c2.29004 2.42969 4.48047 4.96973 6.64062 7.54004v-53.4404c-33.9297 -25.2197 -78.0801 -38.6396 -129.79 -38.6396
c-114.99 0 -208.54 93.5703 -208.54 208.561s93.5498 208.561 208.54 208.561c51.71 0 95.8604 -13.4004 129.79 -38.6406v-53.4502c-2.16016 2.57031 -4.35059 5.12012 -6.66016 7.5498c-28.4404 30.1201 -69.8604 45.3799 -123.13 45.3799z" />
    <glyph glyph-name="c" unicode="&#xe7;" horiz-adv-x="413" 
d="M246.54 368.54c-93.4004 0 -169.381 -76.0088 -169.381 -169.409s76 -169.391 169.4 -169.391c53.25 0 94.6699 15.2803 123.13 45.3799c2.29004 2.42969 4.48047 4.96973 6.64062 7.54004v-53.4404c-33.9297 -25.2197 -78.0801 -38.6396 -129.79 -38.6396
c-114.99 0 -208.54 93.5703 -208.54 208.561s93.5498 208.561 208.54 208.561c51.71 0 95.8604 -13.4004 129.79 -38.6406v-53.4502c-2.16016 2.57031 -4.35059 5.12012 -6.66016 7.5498c-28.4404 30.1201 -69.8604 45.3799 -123.13 45.3799z" />
    <glyph glyph-name="d" unicode="d" horiz-adv-x="509" 
d="M409.12 726.42l39.9502 -0.00195312v-720.81h-39.9297v72.0801c-42.8604 -52.5898 -97.4199 -78.8994 -163.66 -78.8994c-58.4404 0 -107.48 19.79 -147.08 59.4199c-40.2803 40.25 -60.4004 89.6104 -60.4004 148.051c0 58.4502 19.8096 107.46 59.4199 147.09
c40.25 40.2598 89.6104 60.3994 148.051 60.3994c64.29 0 118.84 -26.3096 163.649 -78.8994v391.57zM364.33 86.458c33.1104 33.1201 49.6611 73.0508 49.6709 119.82c0 46.0996 -16.5596 85.7197 -49.6699 118.84c-33.1299 33.1104 -72.7402 49.6699 -118.851 49.6699
c-46.7598 0 -86.3701 -16.2402 -118.84 -48.7002c-33.1104 -33.1201 -49.6699 -73.0703 -49.6699 -119.811c0 -46.1299 16.5498 -85.7295 49.6699 -118.85c33.1299 -33.1104 72.7295 -49.6699 118.84 -49.6699c46.7695 0 86.3691 16.2305 118.85 48.7002z" />
    <glyph glyph-name="e" unicode="e" horiz-adv-x="489" 
d="M321.49 50.4004c27.9102 11.7002 52.918 35.4111 74.998 71.1211l36.04 -16.5596c-25.3398 -48.0703 -64.29 -80.5205 -116.89 -97.4102c-20.1396 -6.49023 -42.8594 -9.74023 -68.1895 -9.74023c-60.3896 0 -110.08 19.7998 -149.03 59.4102
c-39.6299 39.6201 -59.4199 89.29 -59.4199 149.04c0 60.4004 19.4805 110.07 58.4404 149.04c39.5996 39.5996 89.6094 59.4092 150.01 59.4092c59.7305 0 109.091 -18.5 148.061 -55.5195c39.5996 -37 59.4199 -85.0703 59.4199 -144.16h-376.96
c0 -54.5498 14.6104 -97.7402 43.8301 -129.55c30.5303 -32.4805 72.4004 -48.7109 125.66 -48.7109c27.29 0 51.96 4.53027 74.0303 13.6299zM247.458 375.751c-83.1299 0 -137.69 -40.9004 -163.641 -122.74h326.32c-6.50977 37.0303 -25.6699 66.8799 -57.4697 89.6201
c-30.5303 22.0703 -65.6104 33.1201 -105.21 33.1201z" />
    <glyph glyph-name="e" unicode="&#xeb;" horiz-adv-x="489" 
d="M321.49 50.4004c27.9102 11.7002 52.918 35.4111 74.998 71.1211l36.04 -16.5596c-25.3398 -48.0703 -64.29 -80.5205 -116.89 -97.4102c-20.1396 -6.49023 -42.8594 -9.74023 -68.1895 -9.74023c-60.3896 0 -110.08 19.7998 -149.03 59.4102
c-39.6299 39.6201 -59.4199 89.29 -59.4199 149.04c0 60.4004 19.4805 110.07 58.4404 149.04c39.5996 39.5996 89.6094 59.4092 150.01 59.4092c59.7305 0 109.091 -18.5 148.061 -55.5195c39.5996 -37 59.4199 -85.0703 59.4199 -144.16h-376.96
c0 -54.5498 14.6104 -97.7402 43.8301 -129.55c30.5303 -32.4805 72.4004 -48.7109 125.66 -48.7109c27.29 0 51.96 4.53027 74.0303 13.6299zM247.458 375.751c-83.1299 0 -137.69 -40.9004 -163.641 -122.74h326.32c-6.50977 37.0303 -25.6699 66.8799 -57.4697 89.6201
c-30.5303 22.0703 -65.6104 33.1201 -105.21 33.1201z" />
    <glyph glyph-name="e" unicode="&#xea;" horiz-adv-x="489" 
d="M321.49 50.4004c27.9102 11.7002 52.918 35.4111 74.998 71.1211l36.04 -16.5596c-25.3398 -48.0703 -64.29 -80.5205 -116.89 -97.4102c-20.1396 -6.49023 -42.8594 -9.74023 -68.1895 -9.74023c-60.3896 0 -110.08 19.7998 -149.03 59.4102
c-39.6299 39.6201 -59.4199 89.29 -59.4199 149.04c0 60.4004 19.4805 110.07 58.4404 149.04c39.5996 39.5996 89.6094 59.4092 150.01 59.4092c59.7305 0 109.091 -18.5 148.061 -55.5195c39.5996 -37 59.4199 -85.0703 59.4199 -144.16h-376.96
c0 -54.5498 14.6104 -97.7402 43.8301 -129.55c30.5303 -32.4805 72.4004 -48.7109 125.66 -48.7109c27.29 0 51.96 4.53027 74.0303 13.6299zM247.458 375.751c-83.1299 0 -137.69 -40.9004 -163.641 -122.74h326.32c-6.50977 37.0303 -25.6699 66.8799 -57.4697 89.6201
c-30.5303 22.0703 -65.6104 33.1201 -105.21 33.1201z" />
    <glyph glyph-name="e" unicode="&#xe9;" horiz-adv-x="489" 
d="M321.49 50.4004c27.9102 11.7002 52.918 35.4111 74.998 71.1211l36.04 -16.5596c-25.3398 -48.0703 -64.29 -80.5205 -116.89 -97.4102c-20.1396 -6.49023 -42.8594 -9.74023 -68.1895 -9.74023c-60.3896 0 -110.08 19.7998 -149.03 59.4102
c-39.6299 39.6201 -59.4199 89.29 -59.4199 149.04c0 60.4004 19.4805 110.07 58.4404 149.04c39.5996 39.5996 89.6094 59.4092 150.01 59.4092c59.7305 0 109.091 -18.5 148.061 -55.5195c39.5996 -37 59.4199 -85.0703 59.4199 -144.16h-376.96
c0 -54.5498 14.6104 -97.7402 43.8301 -129.55c30.5303 -32.4805 72.4004 -48.7109 125.66 -48.7109c27.29 0 51.96 4.53027 74.0303 13.6299zM247.458 375.751c-83.1299 0 -137.69 -40.9004 -163.641 -122.74h326.32c-6.50977 37.0303 -25.6699 66.8799 -57.4697 89.6201
c-30.5303 22.0703 -65.6104 33.1201 -105.21 33.1201z" />
    <glyph glyph-name="e" unicode="&#xe8;" horiz-adv-x="489" 
d="M321.49 50.4004c27.9102 11.7002 52.918 35.4111 74.998 71.1211l36.04 -16.5596c-25.3398 -48.0703 -64.29 -80.5205 -116.89 -97.4102c-20.1396 -6.49023 -42.8594 -9.74023 -68.1895 -9.74023c-60.3896 0 -110.08 19.7998 -149.03 59.4102
c-39.6299 39.6201 -59.4199 89.29 -59.4199 149.04c0 60.4004 19.4805 110.07 58.4404 149.04c39.5996 39.5996 89.6094 59.4092 150.01 59.4092c59.7305 0 109.091 -18.5 148.061 -55.5195c39.5996 -37 59.4199 -85.0703 59.4199 -144.16h-376.96
c0 -54.5498 14.6104 -97.7402 43.8301 -129.55c30.5303 -32.4805 72.4004 -48.7109 125.66 -48.7109c27.29 0 51.96 4.53027 74.0303 13.6299zM247.458 375.751c-83.1299 0 -137.69 -40.9004 -163.641 -122.74h326.32c-6.50977 37.0303 -25.6699 66.8799 -57.4697 89.6201
c-30.5303 22.0703 -65.6104 33.1201 -105.21 33.1201z" />
    <glyph glyph-name="f" unicode="f" horiz-adv-x="233" 
d="M175.01 689.41c-36.3701 0 -54.5391 -21.4277 -54.5293 -64.2881v-217.23h95.4697v-39.9297h-95.4697v-362.34h-39.9404v362.35h-54.54v39.9297h54.54v228.92c0 61.6699 31.1797 92.5195 93.5098 92.5195c14.2695 0 23.3691 -0.650391 27.2695 -1.9502
c7.79004 0 16.5596 -2.29004 26.2998 -6.82031v-39.9297l-26.2998 5.84961z" />
    <glyph glyph-name="g" unicode="g" horiz-adv-x="506" 
d="M406.19 407.89l39.9824 0.00292969v-393.53c0 -59.0703 -18.1904 -106.811 -54.5605 -143.181s-84.1104 -54.5605 -143.181 -54.5605c-109.76 0 -175.34 43.21 -196.77 129.57h39.9297c7.13965 -31.8203 27.5898 -55.5303 61.3594 -71.1201
c26.6299 -12.3301 58.4502 -18.5 95.46 -18.5c49.9902 0 88.6504 13.96 115.92 41.8799c27.9102 27.9297 41.8799 66.8799 41.8799 116.89v59.4199c-42.21 -50.6504 -95.79 -75.9805 -160.73 -75.9805c-58.4404 0 -107.48 19.79 -147.08 59.4199
c-40.2803 40.2402 -60.4004 89.6006 -60.4004 148.051c0 58.4404 19.8096 107.46 59.4199 147.09c40.25 40.2598 89.6104 60.3896 148.051 60.3896c64.29 0 117.87 -25.3203 160.72 -75.9707v70.1299zM364.312 86.4629c33.1104 33.1201 49.6816 73.0508 49.6816 119.82
c0 46.0996 -16.5703 85.7197 -49.6807 118.84c-33.1201 33.1104 -72.7402 49.6699 -118.84 49.6699c-46.7598 0 -86.3701 -16.2402 -118.84 -48.7002c-33.1104 -33.1201 -49.6807 -73.0703 -49.6807 -119.811c0 -46.1299 16.5498 -85.7295 49.6797 -118.85
c33.1299 -33.1104 72.7295 -49.6699 118.84 -49.6699c46.7598 0 86.3594 16.2305 118.84 48.7002z" />
    <glyph glyph-name="h" unicode="h" horiz-adv-x="430" 
d="M217.75 413.75c105.85 0 158.78 -54.2285 158.78 -162.679v-246.44h-39.9404v242.55c0 85.0596 -39.6299 127.6 -118.84 127.6c-32.4805 0 -60.4004 -9.75 -83.7803 -29.2197c-24.0303 -19.4805 -36.04 -45.4707 -36.04 -77.9307v-262.02h-39.9297v720.81h39.9297
v-372.09c24.0303 39.6104 63.96 59.4199 119.82 59.4199z" />
    <glyph glyph-name="i" unicode="i" horiz-adv-x="155" 
d="M97.3799 5.58984h-39.9297v402.3h39.9297v-402.3zM77.4102 474.79c-17.9004 0 -32.4102 14.5098 -32.4102 32.4102s14.5098 32.4102 32.4102 32.4102s32.4102 -14.5098 32.4102 -32.4102s-14.5098 -32.4102 -32.4102 -32.4102z" />
    <glyph glyph-name="i" unicode="&#xef;" horiz-adv-x="155" 
d="M97.3799 5.58984h-39.9297v402.3h39.9297v-402.3zM77.4102 474.79c-17.9004 0 -32.4102 14.5098 -32.4102 32.4102s14.5098 32.4102 32.4102 32.4102s32.4102 -14.5098 32.4102 -32.4102s-14.5098 -32.4102 -32.4102 -32.4102z" />
    <glyph glyph-name="i" unicode="&#xee;" horiz-adv-x="155" 
d="M97.3799 5.58984h-39.9297v402.3h39.9297v-402.3zM77.4102 474.79c-17.9004 0 -32.4102 14.5098 -32.4102 32.4102s14.5098 32.4102 32.4102 32.4102s32.4102 -14.5098 32.4102 -32.4102s-14.5098 -32.4102 -32.4102 -32.4102z" />
    <glyph glyph-name="i" unicode="&#xed;" horiz-adv-x="155" 
d="M97.3799 5.58984h-39.9297v402.3h39.9297v-402.3zM77.4102 474.79c-17.9004 0 -32.4102 14.5098 -32.4102 32.4102s14.5098 32.4102 32.4102 32.4102s32.4102 -14.5098 32.4102 -32.4102s-14.5098 -32.4102 -32.4102 -32.4102z" />
    <glyph glyph-name="i" unicode="&#xec;" horiz-adv-x="155" 
d="M97.3799 5.58984h-39.9297v402.3h39.9297v-402.3zM77.4102 474.79c-17.9004 0 -32.4102 14.5098 -32.4102 32.4102s14.5098 32.4102 32.4102 32.4102s32.4102 -14.5098 32.4102 -32.4102s-14.5098 -32.4102 -32.4102 -32.4102z" />
    <glyph glyph-name="j" unicode="j" horiz-adv-x="159" 
d="M99.3701 -169.73h-39.9297v577.62h39.9297v-577.62zM79.4102 474.789c-17.9004 0 -32.4102 14.5098 -32.4102 32.4102s14.5098 32.4102 32.4102 32.4102s32.4102 -14.5098 32.4102 -32.4102s-14.5098 -32.4102 -32.4102 -32.4102z" />
    <glyph glyph-name="k" unicode="k" horiz-adv-x="397" 
d="M146.64 242.3l236.71 -236.69h-52.5996l-210.4 209.42l-22.4102 -22.4004v-187.02h-39.9404v720.81h39.9404v-476.31l174.36 173.37h56.5z" />
    <glyph glyph-name="l" unicode="l" horiz-adv-x="155" 
d="M96.9697 5.61035h-38.9697v720.81h38.9697v-720.81z" />
    <glyph glyph-name="m" unicode="m" horiz-adv-x="610" 
d="M518.73 379.66c24.6699 -23.4004 37.0098 -55.5186 37.0098 -96.4385v-277.61h-39.9297v277.61c0 24.6699 -8.12012 46.0996 -24.3506 64.29c-16.2402 18.1699 -39.6201 27.2695 -70.1299 27.2695c-63 0 -94.4902 -30.5303 -94.4902 -91.5605v-277.61h-39.9404v277.61
c0 27.2695 -9.09961 49.0195 -27.2695 65.2598c-18.8496 17.5303 -41.25 26.2998 -67.2197 26.2998c-26.6299 0 -49.04 -8.44043 -67.21 -25.3301c-18.1797 -16.2197 -27.2695 -38.3301 -27.2695 -66.2305v-277.63h-39.9297v402.3h39.9297v-39.9297
c19.4805 30.5303 50.9707 45.79 94.4805 45.79c51.9502 0 90.2598 -21.1201 114.939 -63.3105c23.3799 42.1904 61.3799 63.3105 113.979 63.3105c40.2402 0 72.71 -11.3701 97.4004 -34.0898z" />
    <glyph glyph-name="n" unicode="n" horiz-adv-x="422" 
d="M328.79 369.91c26.6299 -28.5898 39.9307 -68.5186 39.9209 -119.799v-244.5h-39.9297v240.6c0 85.0498 -38.3203 127.609 -114.94 127.609c-37.6602 0 -66.2197 -11.0703 -85.71 -33.1299c-20.1396 -22.0898 -30.1895 -52.29 -30.1895 -90.5801v-244.5h-39.9404v402.29
h39.9404v-48.6904c18.1699 35.6904 56.8096 53.5605 115.909 53.5605c50 0 88.2998 -14.2803 114.939 -42.8604z" />
    <glyph glyph-name="n" unicode="&#xf1;" horiz-adv-x="422" 
d="M328.79 369.91c26.6299 -28.5898 39.9307 -68.5186 39.9209 -119.799v-244.5h-39.9297v240.6c0 85.0498 -38.3203 127.609 -114.94 127.609c-37.6602 0 -66.2197 -11.0703 -85.71 -33.1299c-20.1396 -22.0898 -30.1895 -52.29 -30.1895 -90.5801v-244.5h-39.9404v402.29
h39.9404v-48.6904c18.1699 35.6904 56.8096 53.5605 115.909 53.5605c50 0 88.2998 -14.2803 114.939 -42.8604z" />
    <glyph glyph-name="o" unicode="o" horiz-adv-x="494" 
d="M246.56 415.31c115 0 208.55 -93.5703 208.55 -208.57c0 -114.99 -93.5596 -208.57 -208.55 -208.57c-115 0 -208.56 93.5801 -208.56 208.57c0 115 93.5498 208.57 208.56 208.57zM246.56 37.3496c93.4102 0 169.41 75.9805 169.41 169.391
c0 93.4199 -76 169.4 -169.41 169.4c-93.4199 0 -169.41 -75.9805 -169.41 -169.4c0 -93.4102 75.9902 -169.391 169.41 -169.391z" />
    <glyph glyph-name="o" unicode="&#xf8;" horiz-adv-x="494" 
d="M246.56 415.31c115 0 208.55 -93.5703 208.55 -208.57c0 -114.99 -93.5596 -208.57 -208.55 -208.57c-115 0 -208.56 93.5801 -208.56 208.57c0 115 93.5498 208.57 208.56 208.57zM246.56 37.3496c93.4102 0 169.41 75.9805 169.41 169.391
c0 93.4199 -76 169.4 -169.41 169.4c-93.4199 0 -169.41 -75.9805 -169.41 -169.4c0 -93.4102 75.9902 -169.391 169.41 -169.391z" />
    <glyph glyph-name="o" unicode="&#xf6;" horiz-adv-x="494" 
d="M246.56 415.31c115 0 208.55 -93.5703 208.55 -208.57c0 -114.99 -93.5596 -208.57 -208.55 -208.57c-115 0 -208.56 93.5801 -208.56 208.57c0 115 93.5498 208.57 208.56 208.57zM246.56 37.3496c93.4102 0 169.41 75.9805 169.41 169.391
c0 93.4199 -76 169.4 -169.41 169.4c-93.4199 0 -169.41 -75.9805 -169.41 -169.4c0 -93.4102 75.9902 -169.391 169.41 -169.391z" />
    <glyph glyph-name="o" unicode="&#xf5;" horiz-adv-x="494" 
d="M246.56 415.31c115 0 208.55 -93.5703 208.55 -208.57c0 -114.99 -93.5596 -208.57 -208.55 -208.57c-115 0 -208.56 93.5801 -208.56 208.57c0 115 93.5498 208.57 208.56 208.57zM246.56 37.3496c93.4102 0 169.41 75.9805 169.41 169.391
c0 93.4199 -76 169.4 -169.41 169.4c-93.4199 0 -169.41 -75.9805 -169.41 -169.4c0 -93.4102 75.9902 -169.391 169.41 -169.391z" />
    <glyph glyph-name="o" unicode="&#xf4;" horiz-adv-x="494" 
d="M246.56 415.31c115 0 208.55 -93.5703 208.55 -208.57c0 -114.99 -93.5596 -208.57 -208.55 -208.57c-115 0 -208.56 93.5801 -208.56 208.57c0 115 93.5498 208.57 208.56 208.57zM246.56 37.3496c93.4102 0 169.41 75.9805 169.41 169.391
c0 93.4199 -76 169.4 -169.41 169.4c-93.4199 0 -169.41 -75.9805 -169.41 -169.4c0 -93.4102 75.9902 -169.391 169.41 -169.391z" />
    <glyph glyph-name="o" unicode="&#xf3;" horiz-adv-x="494" 
d="M246.56 415.31c115 0 208.55 -93.5703 208.55 -208.57c0 -114.99 -93.5596 -208.57 -208.55 -208.57c-115 0 -208.56 93.5801 -208.56 208.57c0 115 93.5498 208.57 208.56 208.57zM246.56 37.3496c93.4102 0 169.41 75.9805 169.41 169.391
c0 93.4199 -76 169.4 -169.41 169.4c-93.4199 0 -169.41 -75.9805 -169.41 -169.4c0 -93.4102 75.9902 -169.391 169.41 -169.391z" />
    <glyph glyph-name="o" unicode="&#xf2;" horiz-adv-x="494" 
d="M246.56 415.31c115 0 208.55 -93.5703 208.55 -208.57c0 -114.99 -93.5596 -208.57 -208.55 -208.57c-115 0 -208.56 93.5801 -208.56 208.57c0 115 93.5498 208.57 208.56 208.57zM246.56 37.3496c93.4102 0 169.41 75.9805 169.41 169.391
c0 93.4199 -76 169.4 -169.41 169.4c-93.4199 0 -169.41 -75.9805 -169.41 -169.4c0 -93.4102 75.9902 -169.391 169.41 -169.391z" />
    <glyph glyph-name="p" unicode="p" horiz-adv-x="510" 
d="M411.62 354.33c40.2402 -40.2803 60.3799 -89.6064 60.3799 -148.047c0 -58.4502 -19.8203 -107.48 -59.4199 -147.091c-40.2598 -40.2803 -89.6094 -60.4004 -148.05 -60.4004c-66.8799 0 -122.1 27.2695 -165.59 81.8291v-264h-39.9404v591.27h39.9404v-75.9697
c41.5498 54.5596 96.7402 81.8291 165.59 81.8291c58.4404 0 107.46 -19.8096 147.09 -59.4199zM383.36 86.4639c33.1104 33.1201 49.6699 73.0508 49.6699 119.82c0 46.0996 -16.5498 85.7197 -49.6699 118.84c-33.1299 33.1104 -72.7402 49.6699 -118.84 49.6699
c-46.7695 0 -86.3896 -16.2402 -118.85 -48.7002c-33.1201 -33.1201 -49.6699 -73.0703 -49.6699 -119.811c0 -46.1299 16.5498 -85.7295 49.6699 -118.85c33.1299 -33.1104 72.7295 -49.6699 118.85 -49.6699c46.7598 0 86.3594 16.2305 118.84 48.7002z" />
    <glyph glyph-name="q" unicode="q" horiz-adv-x="509" 
d="M409.11 407.89l39.9404 -0.000976562v-591.25h-39.9297v261.05c-42.8604 -52.5898 -97.4102 -78.8994 -163.641 -78.8994c-58.4404 0 -107.48 19.79 -147.08 59.4199c-40.2803 40.25 -60.4004 89.6104 -60.4004 148.051c0 58.4502 19.79 107.46 59.4199 147.09
c40.25 40.2598 89.6104 60.3994 148.051 60.3994c64.9199 0 119.47 -26.3096 163.64 -78.8994v73.04zM364.301 86.459c33.1104 33.1201 49.6895 73.0508 49.6699 119.82c0 46.0996 -16.5498 85.7197 -49.6699 118.84c-33.1299 33.1104 -72.7402 49.6699 -118.84 49.6699
c-46.7598 0 -86.3896 -16.2402 -118.84 -48.7002c-33.1299 -33.1201 -49.6797 -73.0703 -49.6797 -119.811c0 -46.1299 16.5498 -85.7295 49.6797 -118.85c33.1201 -33.1104 72.7197 -49.6699 118.84 -49.6699c46.7598 0 86.3594 16.2305 118.84 48.7002z" />
    <glyph glyph-name="r" unicode="r" horiz-adv-x="286" 
d="M225.54 405.95c12.9805 -4.5498 27.5928 -12.6582 43.833 -24.3682l-21.4199 -33.1104c-10.4004 7.79004 -21.4307 13.9697 -33.1211 18.5098c-11.6797 4.53027 -24.04 6.82031 -37.0098 6.82031c-11.0498 0 -21.4297 -3.41016 -31.1797 -10.2197
c-9.74023 -6.82031 -18.1807 -15.29 -25.3311 -25.3398c-7.15039 -10.0703 -12.8203 -21.2705 -17.04 -33.6006c-4.24023 -12.3301 -6.33008 -23.7002 -6.33008 -34.0898v-264.96h-39.9404v402.3h39.9404v-54.54c8.42969 14.9297 19.4795 28.5596 33.1191 40.9092
c13.6299 12.3398 28.5596 18.5098 44.8096 18.5098c20.1201 0 36.6797 -2.28027 49.6699 -6.82031z" />
    <glyph glyph-name="s" unicode="s" horiz-adv-x="338" 
d="M259.85 202.37c27.9199 -21.4297 41.8906 -50.3301 41.9404 -86.6797c0 -35.0596 -12.6797 -63.3096 -38 -84.7393c-25.9902 -22.0703 -57.1504 -33.1104 -93.5205 -33.1104c-62.3301 0 -109.08 28.25 -140.271 84.7402l34.0898 20.4502
c11.0195 -20.1201 24.3398 -35.71 39.9395 -46.7402c16.21 -12.3604 38.2998 -18.5205 66.2295 -18.5205c61.0303 0 91.5498 25.9697 91.5498 77.9199c0 22.7197 -10.7002 42.5293 -32.1299 59.4189c-6.5 3.88965 -15.7695 8.29004 -27.7695 13.1602
c-12.0303 4.84961 -26.7998 10.5293 -44.3301 17.0293c-32.4902 11.7002 -55.8701 23.3799 -70.1396 35.0801c-20.7998 16.8604 -31.1699 41.2305 -31.1699 73.04c0 27.2803 10.3701 50.6602 31.1699 70.1406c20.1201 20.1201 46.4199 30.2002 78.9004 30.2002
c44.8096 0 82.79 -15.5703 113.96 -46.75l-29.2197 -25.3301c-22.0801 22.0596 -50.3398 33.1094 -84.7402 33.1094c-46.7598 0 -70.1396 -20.4502 -70.1396 -61.3701c0 -18.1904 7.13965 -33.1104 21.4297 -44.8105c11.6904 -9.09961 30.1904 -17.8691 55.5303 -26.2891
c22.0703 -7.80957 40.2607 -15.1094 54.5508 -21.9297c14.2695 -6.83008 24.9795 -12.8398 32.1396 -18.0195z" />
    <glyph glyph-name="t" unicode="t" horiz-adv-x="231" 
d="M120.48 407.89h93.5098v-39.9297h-93.5098v-362.35h-39.9404v362.35h-54.54v39.9297h54.54v176.31h39.9404v-176.31z" />
    <glyph glyph-name="u" unicode="u" horiz-adv-x="406" 
d="M314.05 407.89h38.9502v-251.3c0 -49.3604 -12.9902 -88.0107 -38.9502 -115.921c-26.6396 -28.5898 -63.9697 -42.8594 -112.02 -42.8594c-47.4102 0 -84.1006 13.96 -110.081 41.8896c-25.9697 27.9102 -38.9502 66.8701 -38.9502 116.89v251.3h39.9297v-251.3
c0 -38.3301 8.44043 -67.8604 25.3301 -88.6299c17.54 -20.7998 45.4404 -31.1895 83.7705 -31.1895c74.6602 0 112.021 39.9404 112.021 119.82v251.3z" />
    <glyph glyph-name="u" unicode="&#xfc;" horiz-adv-x="406" 
d="M314.05 407.89h38.9502v-251.3c0 -49.3604 -12.9902 -88.0107 -38.9502 -115.921c-26.6396 -28.5898 -63.9697 -42.8594 -112.02 -42.8594c-47.4102 0 -84.1006 13.96 -110.081 41.8896c-25.9697 27.9102 -38.9502 66.8701 -38.9502 116.89v251.3h39.9297v-251.3
c0 -38.3301 8.44043 -67.8604 25.3301 -88.6299c17.54 -20.7998 45.4404 -31.1895 83.7705 -31.1895c74.6602 0 112.021 39.9404 112.021 119.82v251.3z" />
    <glyph glyph-name="u" unicode="&#xfb;" horiz-adv-x="406" 
d="M314.05 407.89h38.9502v-251.3c0 -49.3604 -12.9902 -88.0107 -38.9502 -115.921c-26.6396 -28.5898 -63.9697 -42.8594 -112.02 -42.8594c-47.4102 0 -84.1006 13.96 -110.081 41.8896c-25.9697 27.9102 -38.9502 66.8701 -38.9502 116.89v251.3h39.9297v-251.3
c0 -38.3301 8.44043 -67.8604 25.3301 -88.6299c17.54 -20.7998 45.4404 -31.1895 83.7705 -31.1895c74.6602 0 112.021 39.9404 112.021 119.82v251.3z" />
    <glyph glyph-name="u" unicode="&#xfa;" horiz-adv-x="406" 
d="M314.05 407.89h38.9502v-251.3c0 -49.3604 -12.9902 -88.0107 -38.9502 -115.921c-26.6396 -28.5898 -63.9697 -42.8594 -112.02 -42.8594c-47.4102 0 -84.1006 13.96 -110.081 41.8896c-25.9697 27.9102 -38.9502 66.8701 -38.9502 116.89v251.3h39.9297v-251.3
c0 -38.3301 8.44043 -67.8604 25.3301 -88.6299c17.54 -20.7998 45.4404 -31.1895 83.7705 -31.1895c74.6602 0 112.021 39.9404 112.021 119.82v251.3z" />
    <glyph glyph-name="u" unicode="&#xf9;" horiz-adv-x="406" 
d="M314.05 407.89h38.9502v-251.3c0 -49.3604 -12.9902 -88.0107 -38.9502 -115.921c-26.6396 -28.5898 -63.9697 -42.8594 -112.02 -42.8594c-47.4102 0 -84.1006 13.96 -110.081 41.8896c-25.9697 27.9102 -38.9502 66.8701 -38.9502 116.89v251.3h39.9297v-251.3
c0 -38.3301 8.44043 -67.8604 25.3301 -88.6299c17.54 -20.7998 45.4404 -31.1895 83.7705 -31.1895c74.6602 0 112.021 39.9404 112.021 119.82v251.3z" />
    <glyph glyph-name="v" unicode="v" horiz-adv-x="415" 
d="M353.06 407.89h44.8096l-190.92 -419.82l-189.95 419.82h42.8604l146.11 -320.46z" />
    <glyph glyph-name="w" unicode="w" horiz-adv-x="651" 
d="M588.82 407.89h44.8018l-182.15 -419.82l-125.65 321.45l-127.61 -321.45l-180.21 419.82h42.8496l135.41 -311.69l129.56 324.36l128.56 -323.38z" />
    <glyph glyph-name="x" unicode="x" horiz-adv-x="366" 
d="M207.04 209.19l136.382 -203.579h-46.7402l-113.98 168.5l-113.96 -168.5h-47.7402l137.34 202.6l-134.41 199.68h46.75l112.02 -166.56l111.05 166.56h46.7402z" />
    <glyph glyph-name="y" unicode="y" horiz-adv-x="417" 
d="M356.92 407.89h43.8398l-274.69 -591.25h-44.8096l104.23 225.98l-169.49 365.27h42.8604l150 -317.53z" />
    <glyph glyph-name="y" unicode="&#xff;" horiz-adv-x="417" 
d="M356.92 407.89h43.8398l-274.69 -591.25h-44.8096l104.23 225.98l-169.49 365.27h42.8604l150 -317.53z" />
    <glyph glyph-name="y" unicode="&#xfd;" horiz-adv-x="417" 
d="M356.92 407.89h43.8398l-274.69 -591.25h-44.8096l104.23 225.98l-169.49 365.27h42.8604l150 -317.53z" />
    <glyph glyph-name="z" unicode="z" horiz-adv-x="410" 
d="M388.19 407.89l-285.399 -362.351h280.54v-39.9297h-363.33l287.34 364.3h-270.78v37.9805h351.63z" />
    <glyph glyph-name="braceleft" unicode="{" horiz-adv-x="276" 
d="M158.37 -7.65039c12.3203 -10.3701 34.7305 -15.5791 67.2207 -15.5791v-36.04c-44.1797 0 -75.3496 7.79004 -93.5195 23.3799c-18.8301 15.5801 -28.25 45.1201 -28.25 88.6396v195.79c0 15.5898 -4.87012 32.7803 -14.6006 51.6299
c-4.5498 9.08008 -14.29 21.0898 -29.2197 36.04c29.2197 23.3799 43.8193 52.5996 43.8193 87.6592v178.25c0 43.5098 9.08984 74.0293 27.2695 91.5693c18.1904 18.1699 49.3506 27.2695 93.5107 27.2695v-36.0498c-31.1699 0 -52.9297 -6.16992 -65.2598 -18.5
c-12.9902 -13.0098 -19.4805 -34.4297 -19.4805 -64.29v-178.25c0 -35.7197 -13.3096 -64.9395 -39.9297 -87.6592c10.3799 -10.4102 19.4795 -24.0498 27.2695 -40.9199c8.42969 -16.25 12.6602 -31.8398 12.6602 -46.7695v-193.82
c0 -31.8301 6.16992 -52.5996 18.5098 -62.3496z" />
    <glyph glyph-name="verticalbar" unicode="|" horiz-adv-x="175" 
d="M104.07 -54.4102h-34.0703v780.24h34.0703v-780.24z" />
    <glyph glyph-name="braceright" unicode="}" horiz-adv-x="276" 
d="M186.37 370.29c4.53027 -7.79004 14.2607 -19.1611 29.2207 -34.1016c-11.0498 -9.09961 -20.4697 -20.7793 -28.2598 -35.0596c-10.3896 -18.1904 -15.5898 -35.7305 -15.5898 -52.6104v-195.77c0 -43.5195 -9.09961 -73.0596 -27.2695 -88.6396
c-18.8301 -15.5898 -50.3203 -23.3799 -94.4707 -23.3799v36.04c31.8096 0 54.21 4.87988 67.21 14.6104c12.3301 10.3799 18.5098 31.4902 18.5098 63.3105v193.85c0 29.8496 13.2998 59.0801 39.9395 87.6699c-12.3398 10.3701 -22.0898 22.7197 -29.2197 37.0098
c-7.15039 14.2803 -10.7207 31.1807 -10.7207 50.6504v178.25c0 29.8604 -6.50977 51.2803 -19.4795 64.29c-12.3398 12.3301 -34.0898 18.5 -65.2598 18.5v36.0498c42.8496 0 73.6797 -9.41016 92.5293 -28.2402c18.8301 -18.8496 28.25 -49.0498 28.25 -90.5996v-178.25
c0 -18.1797 4.86035 -36.04 14.6104 -53.5801z" />
    <glyph glyph-name="asciitilde" unicode="~" horiz-adv-x="441" 
d="M370.18 366.4l31.168 -26.2969c-30.54 -32.4697 -65.2598 -48.7002 -104.229 -48.7002c-18.1797 0 -31.1699 1.59961 -38.9502 4.85938l-39.9502 18.5195l-24.3398 12.6602c-13.6504 7.13965 -27.2803 10.7197 -40.9199 10.7197
c-18.1797 0 -35.3896 -3.91016 -51.6299 -11.7002l-16.54 -10.71l-18.5195 -16.5596l-27.2695 28.25c33.1104 33.1104 71.1006 49.6699 113.961 49.6699c12.3301 0 24.3604 -1.94043 36.04 -5.84082l38.9697 -17.5303l33.1104 -15.5801l16.5703 -4.87012l17.5195 -1.9502
c27.2695 0 52.2695 11.6797 75.0098 35.0596z" />
    <glyph glyph-name="nonbreakingspace" unicode="&#xa0;" horiz-adv-x="285" 
 />
    <glyph glyph-name="cent" unicode="&#xa2;" horiz-adv-x="438" 
d="M329.71 478.41c-21.4404 9.08984 -40.9219 13.6416 -58.4521 13.6416v-317.59c33.1201 0 68.8301 13.3096 107.15 39.9492v-44.8096c-11.6797 -7.79004 -27.2695 -15.5898 -46.75 -23.3799l-29.2197 -6.82031l-31.1797 -2.91016v-56.5h-40.9199v57.4697
c-51.29 0 -94.8096 22.4102 -130.52 67.2197c-29.2197 35.71 -43.8193 78.25 -43.8193 127.61c0 53.8896 15.5703 99.0293 46.75 135.399c31.7998 37.0195 74.3496 58.7598 127.59 65.2695v48.6904h40.9199v-47.7197c21.4297 0 40.9199 -3.57031 58.4502 -10.7207
c19.4805 -5.83984 36.3701 -15.2598 50.6504 -28.25v-47.7197l-25.3203 16.5596zM230.349 175.472l-0.0205078 315.62c-38.9697 -5.86035 -70.79 -23.3799 -95.46 -52.6104c-24.0303 -29.8799 -36.04 -65.2598 -36.04 -106.18c0 -41.5596 11.7002 -76.3096 35.0801 -104.229
c24.0098 -28.5801 56.1602 -46.1104 96.4404 -52.6006z" />
    <glyph glyph-name="sterling" unicode="&#xa3;" horiz-adv-x="508" 
d="M427.11 64.4297l26.2695 -25.292c-6.49023 -6.5 -13.3105 -12.6699 -20.4609 -18.5098c-7.13965 -5.83984 -15.25 -12.0195 -24.3398 -18.5c-20.7998 -11.7002 -43.5195 -17.54 -68.1895 -17.54c-31.1602 0 -62.0098 9.08008 -92.5293 27.2705
c-9.73047 5.84961 -18.8301 9.73926 -27.2705 11.6992l-22.4102 5.83984l-22.4004 1.9502c-16.8799 0.629883 -35.3994 -3.27051 -55.5195 -11.7002c-10.3896 -4.5498 -23.6992 -14.6094 -39.9297 -30.1992l-25.3301 27.2695c9.74023 13.6396 23.71 25.6494 41.8799 36.0391
c18.8301 11.04 36.04 16.5703 51.6396 16.5703c53.2402 53.2305 79.8701 106.171 79.8701 158.771h-104.23v41.8799h101.31c-3.88965 19.4805 -17.8701 45.4404 -41.8896 77.9209l-36.04 49.6797l-38.96 69.1504c-11.0596 27.2695 -16.5498 52.2695 -16.5498 75.0098
c0 48.04 16.5498 85.3701 49.6699 112.01c31.79 24.6699 72.0801 37.0098 120.78 37.0098c48.04 0 87.0098 -11.0498 116.89 -33.1094c33.1104 -24.7002 49.6807 -60.0801 49.6807 -106.18h-38.96c0 34.4004 -13.2998 60.3809 -39.9297 77.9209
c-21.4404 14.9297 -50.6602 22.4102 -87.6602 22.4102c-85.0703 0 -127.601 -36.7002 -127.601 -110.08l2.91016 -31.1699c5.2002 -24.6904 20.46 -55.8604 45.79 -93.5107l50.6504 -75.9805c15.5898 -23.3701 26.6201 -47.0801 33.1201 -71.1104h111.04v-41.8799h-109.1
c0 -29.2197 -6.5 -57.7998 -19.4902 -85.71c-13.6299 -27.2695 -30.5303 -50.9893 -50.6504 -71.1094l14.6104 -0.969727l16.5498 -6.82031c14.2803 -5.83984 25.9805 -11.6895 35.0801 -17.5293l37 -16.5596c11.7002 -3.88965 24.3604 -5.83984 37.9902 -5.83984
c30.5303 0 59.4404 13.6299 86.71 40.8994z" />
    <glyph glyph-name="yen" unicode="&#xa5;" horiz-adv-x="523" 
d="M479.38 685.9l-195.78 -342.89h96.4297v-39.9297h-99.3604v-43.8301h99.3604v-39.9502h-99.3604v-228.9h-39.9297v228.9h-98.3799v39.9502h98.3799v43.8301h-98.3799v39.9297h95.4502l-194.81 342.89h45.7695l171.45 -301.97l173.38 301.97h45.7803z" />
    <glyph glyph-name="section" unicode="&#xa7;" horiz-adv-x="428" 
d="M280.24 194.96c44.1504 -24.6904 66.2402 -66.8994 66.2305 -126.64c0 -38.96 -12.9902 -69.5098 -38.9707 -91.5693c-26.6396 -22.7197 -59.75 -34.0898 -99.3604 -34.0898c-33.1201 0 -61.0498 8.45996 -83.7695 25.3398
c-22.7305 16.8896 -39.9404 40.5693 -51.6201 71.0996l36.04 16.5596c8.41992 -20.7803 20.1201 -38.6299 35.0605 -53.5596c14.2803 -14.2803 35.71 -21.4307 64.29 -21.4307c27.2803 0 49.6904 7.79004 67.2207 23.3799c18.1602 15.5898 27.2598 37.0195 27.2598 64.2891
c0 66.2197 -34.4199 103.569 -103.25 112.01c-38.3301 5.19043 -70.46 21.1006 -96.4404 47.7402c-26.6201 27.9102 -39.9297 60.71 -39.9297 98.3701c0 39.6104 10.3799 71.75 31.1699 96.4404c11.04 13.6299 30.5303 27.9102 58.4502 42.8506
c-46.0996 26.6299 -69.1494 63.96 -69.1494 112.03c0 35.71 11.6904 64.9297 35.0605 87.6699c24.6699 22.7197 54.5596 34.0801 89.6191 34.0801c55.8496 0 97.4092 -27.2695 124.679 -81.8193l-29.2197 -19.4805c-23.3799 42.8604 -55.1895 64.29 -95.459 64.29
c-23.3701 0 -43.1699 -7.7998 -59.4102 -23.3799c-16.2305 -16.2402 -24.3408 -36.04 -24.3408 -59.4199c0 -53.25 29.8496 -84.7598 89.6191 -94.4902c99.9805 -16.2305 150 -68.1709 150 -155.841c0 -57.1602 -27.9297 -101.96 -83.7793 -134.43zM214.01 229.051
c30.5098 0 55.8389 8.44141 75.9688 25.3311c20.1201 17.54 30.1904 41.5498 30.1904 72.0801c0 71.4199 -37.9902 107.14 -113.971 107.14c-29.2197 0 -52.9297 -9.74023 -71.1094 -29.2207c-18.1797 -18.8398 -27.2695 -43.2002 -27.2695 -73.0498
c0 -30.5303 10.3799 -55.21 31.1797 -74.04c20.7803 -18.8398 45.7803 -28.2402 75.0107 -28.2402z" />
    <glyph glyph-name="guillemotleft" unicode="&#xab;" horiz-adv-x="439" 
d="M390.81 402.44l-164.61 -163.649l160.72 -159.74l-20.4502 -20.46l-179.22 180.2l183.11 184.09zM249.579 402.441l-163.65 -163.649l159.76 -159.74l-20.4697 -20.46l-179.22 180.2l184.1 184.09z" />
    <glyph glyph-name="softhyphen" unicode="&#xad;" 
 />
    <glyph glyph-name="degree" unicode="&#xb0;" horiz-adv-x="254" 
d="M183.33 645.96c16.2305 -16.25 24.3438 -35.0703 24.3438 -56.5s-8.11035 -40.2695 -24.3408 -56.4893c-16.2305 -16.25 -35.0508 -24.3604 -56.4912 -24.3604c-21.4199 0 -40.2598 8.11035 -56.5 24.3604c-16.2305 16.2197 -24.3408 35.0596 -24.3408 56.4893
s8.09961 40.25 24.3398 56.5c16.2197 16.21 35.0693 24.3398 56.499 24.3398c21.4199 0 40.2402 -8.12988 56.4902 -24.3398zM168.723 548.56c12.3301 12.3301 18.501 26.29 18.5107 41.8799c0 15.5898 -6.17969 29.54 -18.5098 41.8799
c-12.3496 12.3301 -26.2998 18.5098 -41.8799 18.5098c-15.5898 0 -29.5703 -6.17969 -41.8906 -18.5098c-12.3496 -12.3398 -18.5098 -26.29 -18.5098 -41.8799s6.16992 -29.5498 18.5098 -41.8799c12.3301 -12.3496 26.2998 -18.5195 41.8896 -18.5195
c15.5801 0 29.5498 6.16992 41.8799 18.5195z" />
    <glyph glyph-name="guillemotright" unicode="&#xbb;" horiz-adv-x="444" 
d="M67.4697 422.88l184.09 -184.091l-179.22 -180.2l-20.4502 20.46l159.74 159.74l-163.63 163.65zM213.569 422.879l184.111 -184.091l-179.23 -180.2l-20.4502 20.46l159.75 159.74l-163.65 163.65z" />
    <glyph glyph-name="divide" unicode="&#xf7;" horiz-adv-x="333" 
d="M165.68 329.39c-7.16016 0 -14.6201 2.90918 -22.4004 8.74902c-5.86035 5.86035 -9.10059 13.6504 -9.75098 23.3809c0 17.5303 10.71 28.25 32.1504 32.1396c16.2402 0 26.9404 -10.71 32.1504 -32.1396c0 -21.4199 -10.7197 -32.1299 -32.1494 -32.1299z
M165.68 164.759c16.2402 0 26.9404 -10.7197 32.1504 -32.1396c0 -21.4199 -10.7197 -32.1504 -32.1494 -32.1504c-7.16016 0 -14.6201 2.92969 -22.4004 8.76953c-5.86035 5.84961 -9.10059 13.6396 -9.75098 23.3799c0 17.5303 10.71 28.2402 32.1504 32.1406z
M291.34 223.209h-250.34v49.6699h250.34v-49.6699z" />
    <glyph glyph-name="circumflex" unicode="&#x2c6;" horiz-adv-x="314" 
d="M156.87 590.42l116.89 -116.87l-19.4697 -21.4404l-97.4199 96.4502l-97.4102 -96.4502l-19.46 21.4404z" />
    <glyph glyph-name="Iocyrillic" unicode="&#x401;" horiz-adv-x="436" 
d="M317.46 721.3c-17.9004 0 -32.4199 14.5195 -32.4199 32.4092c0 17.9004 14.5195 32.4102 32.4199 32.4102c17.8896 0 32.4092 -14.5098 32.4092 -32.4102c0 -17.8896 -14.5195 -32.4092 -32.4092 -32.4092zM156.65 721.3c-17.9102 0 -32.4102 14.5195 -32.4102 32.4092
c0 17.9004 14.5098 32.4102 32.4102 32.4102s32.4102 -14.5098 32.4102 -32.4102c0 -17.8896 -14.5098 -32.4092 -32.4102 -32.4092zM404.11 656.569h-294.18v-253.27h294.18v-42.8398h-294.18v-319.5h294.18v-39.9404h-334.11v695.5h334.11v-39.9502z" />
    <glyph glyph-name="Ecyrillic" unicode="&#x404;" horiz-adv-x="670" 
d="M394.13 668.56c-168.72 0 -307.121 -132.153 -317.301 -298.344h393.85v-39.1797h-393.85c10.1602 -166.22 148.561 -298.35 317.301 -298.35c99.5195 0 177.26 28.8799 231.109 85.8496c4.94043 5.23047 9.65039 10.6309 14.2305 16.1709v-56.5
c-60.5195 -55.9697 -142.76 -84.6895 -245.35 -84.6895c-196.92 0 -357.12 160.2 -357.12 357.101c0 196.91 160.2 357.11 357.12 357.11c102.59 0 184.83 -28.7197 245.35 -84.6895v-56.5098c-4.55957 5.54004 -9.29004 10.9502 -14.2305 16.1807
c-53.8496 56.96 -131.59 85.8496 -231.109 85.8496z" />
    <glyph glyph-name="Icyrillic" unicode="&#x406;" horiz-adv-x="177" 
d="M107.97 1.00977h-38.9697v695.49h38.9697v-695.49z" />
    <glyph glyph-name="Yicyrillic" unicode="&#x407;" horiz-adv-x="178" 
d="M8.41016 786.12c17.9102 0 32.4102 -14.5098 32.4102 -32.4102c0 -17.8896 -14.5098 -32.4092 -32.4102 -32.4092s-32.4102 14.5195 -32.4102 32.4092c0 17.9004 14.5098 32.4102 32.4102 32.4102zM108.311 1.00977h-38.9697v695.49h38.9697v-695.49zM169.23 786.12
c17.9004 0 32.4102 -14.5098 32.4102 -32.4102c0 -17.8896 -14.5098 -32.4092 -32.4102 -32.4092s-32.4102 14.5195 -32.4102 32.4092c0 17.9004 14.5098 32.4102 32.4102 32.4102z" />
    <glyph glyph-name="Acyrillic" unicode="&#x410;" horiz-adv-x="577" 
d="M287.61 718.92l278.589 -717.9h-39.9404l-79.8799 208.46h-316.56l-80.8496 -208.46h-38.9697zM145.399 249.409h284.44l-142.23 368.21z" />
    <glyph glyph-name="Becyrillic" unicode="&#x411;" horiz-adv-x="532" 
d="M461.18 329.3c31.2402 -32.6201 43.8301 -76.6592 43.8301 -126.64c0 -59.7598 -21.0996 -108.13 -63.3096 -145.13c-42.2197 -37.6797 -93.8496 -56.5098 -154.88 -56.5098h-217.82v695.5h301.96v-39.9502h-262.4v-253.25h139.29
c80.54 0 149.26 -7.12012 213.33 -74.0205zM413.46 85.7705c35.0596 29.8604 52.6006 68.832 52.6006 116.892c0 48.7002 -17.8701 87.9697 -53.5801 117.859c-33.1104 28.5596 -74.6807 42.8691 -124.681 42.8691h-179.23v-322.43h179.23
c49.3398 0 91.2402 14.9297 125.66 44.8096z" />
    <glyph glyph-name="Vecyrillic" unicode="&#x412;" horiz-adv-x="537" 
d="M460.58 329.3c29.2197 -34.4297 43.8291 -76.6592 43.8291 -126.649c0 -59.7598 -21.0996 -108.13 -63.3096 -145.14c-42.2305 -37.6699 -93.8506 -56.5 -154.881 -56.5h-217.22v695.49h169.49c53.8799 0 96.7598 -13.96 128.58 -41.8799
c33.75 -29.8799 50.6504 -71.4502 50.6504 -124.681c0 -61.04 -25.0195 -105.85 -75.0098 -134.42c48.7002 -9.74023 87.9805 -31.8203 117.87 -66.2207zM241.389 656.57l-133.45 -0.000976562v-253.27h139.29c37.6504 0 68.8301 11.71 93.5098 35.0801
s37.0195 53.9004 37.0195 91.5605c0 38.9697 -13 69.4795 -38.9697 91.5693c-26.6201 23.3701 -59.0898 35.0605 -97.3994 35.0605zM412.839 85.7695c35.0596 29.8604 52.6006 68.832 52.6006 116.892c0 48.7002 -17.8701 87.9697 -53.5801 117.859
c-33.1104 28.5596 -74.6807 42.8691 -124.681 42.8691h-179.23v-322.43h179.23c49.3398 0 91.2402 14.9297 125.66 44.8096z" />
    <glyph glyph-name="Gecyrillic" unicode="&#x413;" horiz-adv-x="374" 
d="M69 696.52h301.95v-39.9502h-263v-655.55h-38.9502v695.5z" />
    <glyph glyph-name="Decyrillic" unicode="&#x414;" horiz-adv-x="576" 
d="M489.74 40.5098l54.9893 0.00195312v-137.19h-39.4297v98.2197h-433.88v-98.2305h-39.4199v137.19h54.4902v487.47c0 56.5195 20.4502 101.649 61.3701 135.419c35.71 29.8701 82.79 44.8105 141.23 44.8105c56.4902 0 103.59 -15.2402 141.229 -45.7803
c39.6299 -33.1201 59.4199 -77.9297 59.4199 -134.43v-487.48zM450.779 40.5117l0.000976562 487.479c0 44.79 -16.2197 79.8701 -48.7002 105.2c-29.8701 23.3799 -67.5303 35.0703 -113 35.0703c-44.8096 0 -82.46 -12 -113 -36.04
c-33.1104 -25.9697 -49.6807 -60.7197 -49.6807 -104.229v-487.48h324.38z" />
    <glyph glyph-name="Iecyrillic" unicode="&#x415;" horiz-adv-x="435" 
d="M403.09 656.57h-294.16v-253.27h294.16v-42.8398h-294.16v-319.5h294.16v-39.9404h-334.09v695.5h334.09v-39.9502z" />
    <glyph glyph-name="Zhecyrillic" unicode="&#x416;" horiz-adv-x="845" 
d="M476.4 364.35l362.358 -363.33h-55.5195l-335.08 336.06l-5.78027 -5.76953v-330.29h-40.0098v330.29l-5.76953 5.76953l-335.08 -336.06h-55.5195l362.35 363.33l-333.13 332.17h56.5l310.65 -308.71v308.71h40.0098v-308.71l310.66 308.71h56.4902z" />
    <glyph glyph-name="Zecyrillic" unicode="&#x417;" horiz-adv-x="495" 
d="M324.16 406.42c77.71 -32.3799 132.499 -109.079 132.519 -198.369c0 -118.45 -96.3799 -214.84 -214.84 -214.84s-214.84 96.3896 -214.84 214.84h39.1602c0 -96.8604 78.8203 -175.66 175.681 -175.66s175.681 78.7998 175.681 175.66
c0 96.8701 -78.8203 175.67 -175.681 175.67h-101.58v39.1699h101.58c67.8496 0 123.05 55.2002 123.05 123.03c0 67.8398 -55.2002 123.04 -123.05 123.04s-123.05 -55.1904 -123.05 -123.04h-39.1602c0 89.4502 72.75 162.21 162.19 162.21
c89.4502 0 162.2 -72.7598 162.2 -162.21c0 -59.3604 -32.1504 -111.221 -79.8604 -139.501z" />
    <glyph glyph-name="Iicyrillic" unicode="&#x418;" horiz-adv-x="700" 
d="M109.93 92.5098l519.19 608.79v-700.36h-38.96v590.29l-520.16 -601.96v707.17h39.9297v-603.93z" />
    <glyph glyph-name="Iishortcyrillic" unicode="&#x419;" horiz-adv-x="700" 
d="M349.55 721.82c-77.5303 0 -113.101 23.04 -144.461 43.3701l-9.08984 5.83984l20.9102 33.0996l9.4502 -6.05957c29.4297 -19.0703 57.25 -37.0703 123.19 -37.0703c65.9297 0 93.7393 17.9902 123.18 37.0703l9.45996 6.05957l20.9199 -33.0996l-9.08984 -5.83984
c-31.3799 -20.3203 -66.9502 -43.3701 -144.47 -43.3701zM109.93 92.5107l519.171 608.79v-700.36h-38.9502v590.29l-520.15 -601.96v707.17h39.9297v-603.93z" />
    <glyph glyph-name="Kacyrillic" unicode="&#x41a;" horiz-adv-x="512" 
d="M143.03 364.35l362.35 -363.329h-55.5098l-335.08 336.06l-5.86035 -5.86035v-330.2h-39.9297v695.5h39.9297v-308.78l310.74 308.78h56.4902z" />
    <glyph glyph-name="Elcyrillic" unicode="&#x41b;" horiz-adv-x="476" 
d="M238.01 708.2l223.061 -707.18h-40.9102l-182.15 574.7l-183.12 -574.7h-41.8896z" />
    <glyph glyph-name="Emcyrillic" unicode="&#x41c;" horiz-adv-x="874" 
d="M673.58 717.92l181.172 -716.93h-40.9004l-148.07 584.44l-228.9 -601.98l-228.91 602.95l-149.03 -585.41h-39.9404l181.18 715.94l236.7 -620.48z" />
    <glyph glyph-name="Encyrillic" unicode="&#x41d;" horiz-adv-x="600" 
d="M490.77 696.52h39.9502v-695.5h-39.9502v362.37h-382.8v-362.37h-38.9697v695.5h38.9697v-293.22h382.8v293.22z" />
    <glyph glyph-name="Ocyrillic" unicode="&#x41e;" horiz-adv-x="789" 
d="M394.1 708.2c196.92 0 357.12 -160.2 357.101 -357.101c0 -196.92 -160.2 -357.12 -357.101 -357.12s-357.101 160.2 -357.101 357.12c0 196.9 160.19 357.101 357.101 357.101zM394.1 33.1406c175.32 0 317.96 142.64 317.96 317.96s-142.64 317.94 -317.96 317.94
s-317.95 -142.62 -317.95 -317.94s142.63 -317.96 317.95 -317.96z" />
    <glyph glyph-name="Pecyrillic" unicode="&#x41f;" horiz-adv-x="600" 
d="M69 696.45h461.811v-694.36h-39.1602v655.18h-383.49v-655.18h-39.1602v694.36z" />
    <glyph glyph-name="Ercyrillic" unicode="&#x420;" horiz-adv-x="451" 
d="M372.91 649.8c36.3701 -31.1797 54.5488 -73.04 54.5488 -125.65c0 -53.25 -18.1797 -95.4502 -54.5498 -126.63c-36.3701 -32.4697 -81.1797 -48.7002 -134.42 -48.7002h-130.52v-347.76h-38.9697v695.5h169.49c53.2402 0 98.0498 -15.5898 134.42 -46.7598z
M344.679 423.81c28.5596 24.6602 42.8408 58.1201 42.8408 100.33s-14.9404 75.3203 -44.8105 99.3604c-26.6299 22.0596 -61.6895 33.1191 -105.189 33.1191h-129.55v-267.87h129.55c42.8496 0 78.5596 11.6904 107.159 35.0605z" />
    <glyph glyph-name="Escyrillic" unicode="&#x421;" horiz-adv-x="670" 
d="M394.1 669.04c-175.32 0 -317.95 -142.609 -317.95 -317.93s142.63 -317.95 317.95 -317.95c99.5195 0 177.289 28.8799 231.129 85.8496c4.91992 5.21973 9.65039 10.6299 14.2305 16.1602v-56.4902c-60.54 -55.9697 -142.76 -84.7002 -245.359 -84.7002
c-196.9 0 -357.101 160.2 -357.101 357.12c0 196.9 160.19 357.101 357.101 357.101c102.61 0 184.83 -28.7305 245.36 -84.7002v-56.4805c-4.58008 5.54004 -9.31055 10.9404 -14.251 16.1807c-53.8398 56.9502 -131.59 85.8398 -231.109 85.8398z" />
    <glyph glyph-name="Tecyrillic" unicode="&#x422;" horiz-adv-x="354" 
d="M3 696.52h347.72v-39.9502h-153.9v-655.55h-39.9297v655.55h-153.89v39.9502z" />
    <glyph glyph-name="Ucyrillic" unicode="&#x423;" horiz-adv-x="469" 
d="M408.95 696.52h51.5596l-322.44 -695.5h-51.54l122.36 263.92l-197.89 431.58h51.4297l172.32 -375.78z" />
    <glyph glyph-name="Efcyrillic" unicode="&#x424;" horiz-adv-x="771" 
d="M404.82 707.82c207.15 -1.95996 335.66 -102.08 335.66 -262.521c0 -160.45 -128.51 -260.57 -335.66 -262.53v-181.76h-39.1699v181.72c-207.13 1.82031 -335.649 101.98 -335.649 262.551s128.52 260.74 335.649 262.55zM365.66 221.891v446.779
c-185.7 -1.67969 -296.47 -84.8398 -296.47 -223.39s110.77 -221.71 296.47 -223.39zM404.82 221.92c185.73 1.82031 296.49 84.9297 296.49 223.38c0 138.44 -110.78 221.57 -296.49 223.37v-446.75z" />
    <glyph glyph-name="Khacyrillic" unicode="&#x425;" horiz-adv-x="489" 
d="M269.23 357.53l204.561 -356.51h-45.79l-185.08 322.42l-183.11 -322.42h-44.8096l204.55 359.44l-192.86 336.06h45.7803l171.43 -301l172.4 301h45.79z" />
    <glyph glyph-name="Tsecyrillic" unicode="&#x426;" horiz-adv-x="601" 
d="M530.83 696.52v-694.36h-461.83v694.36h39.1699v-655.18h383.48v655.18h39.1797zM531.01 -90.1709h-205.52v39.1797h205.52v-39.1797z" />
    <glyph glyph-name="Checyrillic" unicode="&#x427;" horiz-adv-x="533" 
d="M424.13 333.48l-0.000976562 363.05h39.1602v-695.51h-39.1797v293.3h-130.97c-146.73 0 -266.141 119.39 -266.141 266.13v136.07h39.1699v-136.07c0 -125.16 101.83 -226.97 226.98 -226.97h130.98z" />
    <glyph glyph-name="Shacyrillic" unicode="&#x428;" horiz-adv-x="846" 
d="M737.54 696.52h39.1797v-695.51h-707.72v695.51h39.1699v-656.37h295.11v656.37h39.1699v-656.37h295.09v656.37z" />
    <glyph glyph-name="Shchacyrillic" unicode="&#x429;" horiz-adv-x="846" 
d="M776.66 -90.1699h-205.52v39.1797h205.52v-39.1797zM737.53 696.521h39.1709v-695.51h-707.7v695.51h39.1699v-656.37h295.1v656.37h39.1602v-656.37h295.1v656.37z" />
    <glyph glyph-name="Hardsigncyrillic" unicode="&#x42a;" horiz-adv-x="584" 
d="M514.1 329.3c31.25 -32.6201 43.8389 -76.6592 43.8389 -126.64c0 -59.7598 -21.0996 -108.13 -63.3096 -145.13c-42.2305 -37.6797 -93.8604 -56.5098 -154.88 -56.5098h-217.22v656.53h-111.53v38.9697h150.48v-293.2h139.3
c80.5303 0 149.261 -7.12012 213.32 -74.0205zM466.379 85.7705c35.0596 29.8604 52.6006 68.832 52.6006 116.892c0 48.7002 -17.8604 87.9697 -53.5801 117.859c-33.1104 28.5596 -74.6699 42.8691 -124.68 42.8691h-179.22v-322.43h179.22
c49.3496 0 91.2393 14.9297 125.659 44.8096z" />
    <glyph glyph-name="Yericyrillic" unicode="&#x42b;" horiz-adv-x="655" 
d="M247.26 403.3c80.54 0 149.261 -7.10059 213.32 -74.001c31.2197 -32.6201 43.8301 -76.6396 43.8301 -126.64c0 -59.7598 -21.0996 -108.13 -63.3096 -145.13c-42.2305 -37.6797 -93.8506 -56.5098 -154.881 -56.5098h-217.22v695.5h38.9697v-293.22h139.29z
M412.851 85.7686c35.0703 29.8604 52.6006 68.832 52.6006 116.892c0 48.7002 -17.8604 87.9697 -53.5703 117.859c-33.1201 28.5596 -74.6797 42.8691 -124.689 42.8691h-179.22v-322.43h179.22c49.3496 0 91.2393 14.9297 125.659 44.8096zM585.86 1.02051h-38.96v695.5
h38.96v-695.5z" />
    <glyph glyph-name="Softsigncyrillic" unicode="&#x42c;" horiz-adv-x="531" 
d="M460.59 329.3c31.2402 -32.6201 43.8301 -76.6592 43.8203 -126.64c0 -59.7598 -21.0996 -108.13 -63.3096 -145.13c-42.2305 -37.6797 -93.8506 -56.5098 -154.881 -56.5098h-217.22v695.5h38.9697v-293.2h139.29c80.54 0 149.26 -7.12012 213.33 -74.0205z
M412.85 85.7705c35.0801 29.8604 52.6201 68.832 52.6006 116.892c0 48.7002 -17.8604 87.9697 -53.5703 117.859c-33.1201 28.5596 -74.6797 42.8691 -124.689 42.8691h-179.22v-322.43h179.22c49.3496 0 91.2393 14.9297 125.659 44.8096z" />
    <glyph glyph-name="Ereversedcyrillic" unicode="&#x42d;" horiz-adv-x="670" 
d="M275.35 707.72c196.92 0 357.12 -160.199 357.12 -357.14c0 -196.9 -160.2 -357.11 -357.12 -357.11c-102.59 0 -184.83 28.7305 -245.35 84.7002v56.5c4.55957 -5.54004 9.29004 -10.9502 14.2305 -16.1699c53.8496 -56.96 131.59 -85.8496 231.109 -85.8496
c168.74 0 307.141 132.13 317.291 298.35h-393.84v39.1797h393.84c-10.1504 166.22 -148.551 298.37 -317.291 298.37c-99.5195 0 -177.26 -28.8799 -231.109 -85.8604c-4.94043 -5.21973 -9.65039 -10.6396 -14.2305 -16.1797v56.5098
c60.5195 55.9697 142.76 84.7002 245.35 84.7002z" />
    <glyph glyph-name="IUcyrillic" unicode="&#x42e;" horiz-adv-x="916" 
d="M521.12 708.2c196.9 0 357.101 -160.2 357.12 -357.11c0 -196.92 -160.21 -357.12 -357.11 -357.12c-190.18 0 -346.069 149.44 -356.52 337.051h-55.4404v-330.01h-39.1699v695.51h39.1699v-326.34h55.3604c9.9502 188.06 166.08 338.02 356.59 338.02zM521.12 33.1406
c175.32 0 317.94 142.64 317.94 317.96s-142.62 317.94 -317.94 317.94s-317.96 -142.62 -317.96 -317.94s142.64 -317.96 317.96 -317.96z" />
    <glyph glyph-name="IAcyrillic" unicode="&#x42f;" horiz-adv-x="475" 
d="M245.12 696.52l160.711 -0.000976562v-695.51h-38.9697v347.75h-75l-221.12 -347.75h-46.7402l223.07 347.75c-27.9297 0 -53.5898 3.41016 -76.96 10.2305c-23.3799 6.82031 -43.6699 17.3604 -60.8896 31.6699c-17.2002 14.2695 -30.5 32.46 -39.9297 54.54
c-9.40039 22.0596 -14.1201 48.3594 -14.1201 78.8994c0 27.9102 5.0498 52.6006 15.1094 74.0303s23.5293 39.46 40.4092 54.0703c16.9004 14.5996 37.0303 25.6396 60.3906 33.1201c23.3896 7.45996 48.0693 11.2002 74.0391 11.2002zM235.401 388.709
l131.499 -0.00195312v267.88h-120.78c-20.7803 0 -40.2607 -2.78027 -58.4404 -8.29004c-18.1904 -5.50977 -34.1104 -13.6201 -47.7402 -24.3398c-13.6396 -10.7197 -24.3594 -24.3594 -32.1494 -40.9189c-7.7998 -16.5498 -11.6895 -35.8896 -11.6895 -57.9492
c0 -44.1797 12.8301 -77.9395 38.4805 -101.319c25.6602 -23.3701 59.2705 -35.0605 100.82 -35.0605z" />
    <glyph glyph-name="acyrillic" unicode="&#x430;" horiz-adv-x="478" 
d="M396.19 403.3l39.9609 -0.000976562v-402.29h-39.9404v69.1602c-42.21 -50.6299 -95.79 -75.9795 -160.73 -75.9795c-58.4404 0 -107.48 19.8096 -147.08 59.4199c-40.2803 40.25 -60.4004 89.6201 -60.4004 148.061c0 58.4502 19.8096 107.46 59.4199 147.08
c40.25 40.2598 89.6104 60.3994 148.051 60.3994c64.29 0 117.87 -25.3096 160.72 -75.9697v70.1201zM354.331 81.8789c33.1104 33.1201 49.6611 73.0488 49.6709 119.809c0 46.0996 -16.5596 85.71 -49.6699 118.83c-33.1299 33.1201 -72.7402 49.6904 -118.851 49.6904
c-46.7598 0 -86.3701 -16.25 -118.84 -48.7197c-33.1104 -33.1104 -49.6699 -73.0703 -49.6699 -119.801c0 -46.1201 16.5498 -85.7197 49.6699 -118.84c33.1299 -33.1201 72.7295 -49.6797 118.84 -49.6797c46.7695 0 86.3691 16.2305 118.85 48.7109z" />
    <glyph glyph-name="becyrillic" unicode="&#x431;" horiz-adv-x="322" 
d="M265.31 199.78c26.46 -28.1504 31.6211 -53.2109 31.6016 -82.1406c0 -34.5596 -12.2002 -62.5498 -36.6104 -83.9502c-24.4199 -21.7998 -54.2803 -32.6797 -89.5801 -32.6797h-130.72v402.29h205.92v-39.4199h-166.95v-122.47h62.2197
c64.3398 0 97.1094 -12.8896 124.119 -41.6299zM231.07 59.2695c18.6797 15.8896 28.0195 36.6484 28.0195 62.2285c0 25.9404 -9.53027 46.8604 -28.54 62.7607c-17.6299 15.2197 -39.7598 22.8301 -66.3896 22.8301h-85.1904v-171.68h85.1904
c26.2803 0 48.5898 7.9502 66.9102 23.8604z" />
    <glyph glyph-name="vecyrillic" unicode="&#x432;" horiz-adv-x="324" 
d="M265.86 199.78c26.46 -28.1504 31.6211 -53.208 31.6211 -82.1377c0 -34.5596 -12.21 -62.5498 -36.6201 -83.9502c-24.4102 -21.7998 -54.2803 -32.6797 -89.5801 -32.6797h-131.28v402.29h98.0303c31.1797 0 55.9697 -8.08008 74.3799 -24.2305
c19.5195 -17.2803 33.4395 -42.3906 33.4395 -73.1807c0 -32.3701 -11.6602 -55.8604 -35.8506 -72.3008c23.4199 -6.66992 40.6699 -17.6504 55.8604 -33.8105zM138.151 363.882l-58.6494 0.00195312v-122.47h61.6699c19.4902 0 35.6104 6.05957 48.3906 18.1592
c12.7695 12.0801 19.1592 25.5205 19.1592 41.8701c0 20.1797 -5.80957 33.9492 -19.25 45.3789c-13.79 12.0996 -31.4902 17.0596 -51.3203 17.0596zM231.622 59.2734c18.6699 15.8896 28.0195 36.6484 28.0195 62.2285c0 25.9404 -9.53027 46.8604 -28.54 62.7607
c-17.6299 15.2197 -39.7598 22.8301 -66.3896 22.8301h-85.1904v-171.68h85.1904c26.2803 0 48.5898 7.9502 66.9102 23.8604z" />
    <glyph glyph-name="gecyrillic" unicode="&#x433;" horiz-adv-x="257" 
d="M40 403.3h205.92v-39.4199h-166.95v-362.86h-38.9697v402.28z" />
    <glyph glyph-name="decyrillic" unicode="&#x434;" horiz-adv-x="450" 
d="M374.99 40.5098l54.9883 -0.000976562v-137.19h-39.4199v98.2197h-331.14v-98.2197h-39.4199v137.19h54.9805v211.82c0 49.3398 12.9902 88.0098 38.96 115.91c26.6299 28.5801 63.9697 42.8604 112.02 42.8604c47.4102 0 84.0898 -13.9697 110.07 -41.8799
c25.9805 -27.9199 38.9609 -66.8799 38.9609 -116.89v-211.82zM335.059 40.5088l0.000976562 211.822c0 38.2998 -8.44043 67.8594 -25.3408 88.6289c-17.54 20.79 -45.4404 31.1797 -83.7607 31.1797c-74.6699 0 -112.02 -39.9404 -112.02 -119.811v-211.82h221.12z" />
    <glyph glyph-name="iecyrillic" unicode="&#x435;" horiz-adv-x="471" 
d="M311.49 45.8301c27.9199 11.7002 52.918 35.3887 74.998 71.1191l36.04 -16.5596c-25.3398 -48.0596 -64.29 -80.5195 -116.89 -97.3994c-20.1396 -6.50977 -42.8594 -9.75 -68.1895 -9.75c-60.3896 0 -110.08 19.79 -149.03 59.4102
c-39.6299 39.6104 -59.4199 89.29 -59.4199 149.05c0 60.3799 19.4805 110.07 58.4404 149.03c39.5996 39.5996 89.6094 59.4092 150.01 59.4092c59.7305 0 109.091 -18.5098 148.061 -55.5195c39.5996 -37 59.4199 -85.0703 59.4199 -144.16h-376.96
c0 -54.5596 14.6104 -97.75 43.8301 -129.55c30.5303 -32.4697 72.4004 -48.71 125.66 -48.71c27.29 0 51.96 4.53027 74.0303 13.6299zM237.458 371.168c-83.1299 0 -137.671 -40.9111 -163.641 -122.751h326.32c-6.50977 37.0303 -25.6699 66.8906 -57.4697 89.6211
c-30.5303 22.0801 -65.6104 33.1299 -105.21 33.1299z" />
    <glyph glyph-name="zhecyrillic" unicode="&#x436;" horiz-adv-x="548" 
d="M344.93 240.37l192.371 -239.35h-51.6201l-169.63 210l-0.299805 -0.290039l-22.5303 -22.5098v-187.2h-39.1602v187.2l-22.5098 22.5098l-0.320312 0.290039l-169.63 -210h-51.5996l192.37 239.35l0.209961 0.259766l-164.4 162.67h56.2598l158.96 -158.07
l0.660156 -0.639648v158.71h39.1602v-158.71l0.669922 0.639648l158.97 158.07h56.2598l-164.41 -162.67z" />
    <glyph glyph-name="zecyrillic" unicode="&#x437;" horiz-adv-x="309" 
d="M214.9 229.56c37.8896 -21.9199 63.4912 -62.8096 63.4912 -109.64c0 -69.8604 -56.8203 -126.71 -126.69 -126.71c-69.8604 0 -126.7 56.8496 -126.7 126.71h39.1602c0 -48.2803 39.2695 -87.5303 87.5391 -87.5303c48.2803 0 87.5498 39.25 87.5498 87.5303
c0 48.2695 -39.2695 87.5293 -87.5498 87.5293h-56.9404v39.1699h56.9404c34.5898 0 62.7197 28.1396 62.7197 62.71s-28.1299 62.7002 -62.7197 62.7002c-34.5801 0 -62.7197 -28.1201 -62.7197 -62.7002h-39.1602c0 56.1699 45.71 101.88 101.88 101.88
c56.1797 0 101.88 -45.71 101.88 -101.88c0 -32.2998 -15.1602 -61.0898 -38.6797 -79.7695z" />
    <glyph glyph-name="iicyrillic" unicode="&#x438;" horiz-adv-x="388" 
d="M307.77 403.3h39.96v-402.29h-39.9502v48.7002c-18.1699 -35.7002 -56.8096 -53.5801 -115.909 -53.5801c-49.9902 0 -88.2998 14.29 -114.939 42.8701c-26.6104 28.5801 -39.9307 68.5205 -39.9307 119.801v244.5h39.9297v-240.59
c0 -85.0703 38.3203 -127.61 114.94 -127.61c37.6602 0 66.2197 11.0498 85.71 33.1094c20.1396 22.0996 30.1895 52.2998 30.1895 90.5898v244.5z" />
    <glyph glyph-name="iishortcyrillic" unicode="&#x439;" horiz-adv-x="396" 
d="M196.34 411.1c-44.25 0 -64.8506 19.9297 -81.4004 35.9297l-4.53027 4.33008l26.8799 28.4805l4.86035 -4.67969c14.3896 -13.9102 25.7598 -24.9004 54.1895 -24.9004c28.4199 0 39.7998 10.9805 54.1895 24.9004l4.87012 4.67969l26.8701 -28.4805l-4.51953 -4.33008
c-16.5498 -16 -37.1494 -35.9297 -81.4092 -35.9297zM311.769 403.3h39.96v-402.29h-39.9502v48.7002c-18.1699 -35.7002 -56.8096 -53.5801 -115.909 -53.5801c-49.9902 0 -88.2998 14.29 -114.939 42.8701c-26.6104 28.5801 -39.9307 68.5205 -39.9307 119.801v244.5
h39.9297v-240.59c0 -85.0703 38.3203 -127.61 114.94 -127.61c37.6602 0 66.2197 11.0498 85.71 33.1094c20.1396 22.0996 30.1895 52.2998 30.1895 90.5898v244.5z" />
    <glyph glyph-name="kacyrillic" unicode="&#x43a;" horiz-adv-x="374" 
d="M130.64 237.71l236.71 -236.689h-52.6201l-210.38 209.42l-22.4199 -22.3896v-187.03h-39.9297v418.2h39.9297v-173.7l174.37 173.38h56.5z" />
    <glyph glyph-name="elcyrillic" unicode="&#x43b;" horiz-adv-x="401" 
d="M200.91 420.84l189.96 -419.82h-42.8604l-146.11 320.46l-147.09 -320.46h-44.8096z" />
    <glyph glyph-name="emcyrillic" unicode="&#x43c;" horiz-adv-x="639" 
d="M446.42 421.12l180.198 -419.81h-42.8604l-135.39 311.69l-129.56 -324.36l-128.57 323.38l-134.43 -310.71h-44.8096l182.15 419.81l125.66 -321.45z" />
    <glyph glyph-name="encyrillic" unicode="&#x43d;" horiz-adv-x="391" 
d="M311.62 403.3h39.1504v-402.29h-39.1504v181.56h-232.46v-181.56h-39.1602v402.29h39.1602v-181.56h232.46v181.56z" />
    <glyph glyph-name="ocyrillic" unicode="&#x43e;" horiz-adv-x="474" 
d="M236.56 411.11c114.99 0 208.55 -93.5801 208.55 -208.57s-93.5596 -208.57 -208.55 -208.57c-115 0 -208.56 93.5801 -208.56 208.57s93.5498 208.57 208.56 208.57zM236.56 33.1406c93.4102 0 169.41 75.9902 169.41 169.4s-76 169.4 -169.41 169.4
c-93.4199 0 -169.41 -75.9902 -169.41 -169.4s75.9902 -169.4 169.41 -169.4z" />
    <glyph glyph-name="pecyrillic" unicode="&#x43f;" horiz-adv-x="393" 
d="M40 403.52h312.421v-402.51h-39.1602v363.35h-234.11v-363.35h-39.1504v402.51z" />
    <glyph glyph-name="ercyrillic" unicode="&#x440;" horiz-adv-x="482" 
d="M393.62 349.79c40.2598 -40.2695 60.3799 -89.5996 60.3799 -148.05c0 -58.4404 -19.8203 -107.48 -59.4199 -147.091c-40.2598 -40.2695 -89.6094 -60.4092 -148.05 -60.4092c-66.8799 0 -122.1 27.2803 -165.59 81.8301v-263.99h-39.9404v591.26h39.9404v-75.9697
c41.5498 54.5596 96.7402 81.8291 165.59 81.8291c58.4404 0 107.46 -19.8096 147.09 -59.4092zM365.37 81.9297c33.1104 33.1104 49.6807 73.04 49.6807 119.8c0 46.0996 -16.5703 85.71 -49.6807 118.83c-33.1201 33.1201 -72.7402 49.6904 -118.84 49.6904
c-46.7598 0 -86.3896 -16.25 -118.84 -48.7197c-33.1299 -33.1104 -49.6797 -73.0703 -49.6797 -119.801c0 -46.1201 16.5498 -85.7197 49.6797 -118.84c33.1201 -33.1104 72.7197 -49.6807 118.84 -49.6807c46.7598 0 86.3594 16.2402 118.84 48.7207z" />
    <glyph glyph-name="escyrillic" unicode="&#x441;" horiz-adv-x="394" 
d="M236.54 371.92c-93.3799 0 -169.381 -75.9902 -169.381 -169.391s75.9805 -169.391 169.381 -169.391c53.2695 0 94.6895 15.2695 123.13 45.3799c2.33008 2.44043 4.5 4.99023 6.66016 7.57031v-53.4697c-33.9102 -25.2197 -78.0801 -38.6396 -129.79 -38.6396
c-114.99 0 -208.54 93.5703 -208.54 208.561s93.5498 208.561 208.54 208.561c51.71 0 95.8604 -13.4199 129.79 -38.6504v-53.4502c-2.16016 2.57031 -4.35059 5.12012 -6.64062 7.54004c-28.46 30.1299 -69.8799 45.3799 -123.149 45.3799z" />
    <glyph glyph-name="tecyrillic" unicode="&#x442;" horiz-adv-x="262" 
d="M12 402.651h237.766v-39.9434h-98.9248v-362.353h-39.9297v362.353h-98.9111v39.9434z" />
    <glyph glyph-name="ucyrillic" unicode="&#x443;" horiz-adv-x="333" 
d="M279.455 403.651h43.1729l-227.347 -490.362h-43.1738l92.877 200.323l-132.985 290.039h43.0918l111.557 -243.318z" />
    <glyph glyph-name="efcyrillic" unicode="&#x444;" horiz-adv-x="481" 
d="M254.07 411.63c125.11 0 202.84 -60.4893 202.84 -157.869c0 -95.8096 -75.3096 -155.779 -196.88 -157.72v-95.0303h-39.1699v95.0195c-121.54 1.84961 -196.86 61.8398 -196.86 157.71c0 97.3896 77.6201 157.89 202.561 157.89h27.5098zM220.859 135.121v237.261
c-43.5303 -0.879883 -157.7 -13.2803 -157.7 -118.641c0 -105.34 114.17 -117.74 157.7 -118.62zM260.02 135.122c43.79 0.929688 157.71 13.4795 157.71 118.64c0 105.13 -113.93 117.68 -157.71 118.62v-237.26z" />
    <glyph glyph-name="khacyrillic" unicode="&#x445;" horiz-adv-x="355" 
d="M202.04 204.6l136.38 -203.58h-46.7598l-113.97 168.52l-113.97 -168.52h-47.7197l137.34 202.61l-134.41 199.67h46.75l112.01 -166.55l111.04 166.55h46.7598z" />
    <glyph glyph-name="tsecyrillic" unicode="&#x446;" horiz-adv-x="389" 
d="M348.46 0.790039h-155.149c-86.7305 0 -157.311 70.5703 -157.311 157.33v245.18h39.1699v-245.18c0 -65.1699 53.0098 -118.17 118.16 -118.17h115.95v363.35h39.1797v-402.51zM348.61 -90.1699h-157.33v39.1797h157.33v-39.1797z" />
    <glyph glyph-name="checyrillic" unicode="&#x447;" horiz-adv-x="329" 
d="M249.7 403.3l39.1699 0.00195312v-402.29h-39.1699v161.39h-67.5098c-89.4199 0 -162.189 72.7695 -162.189 162.199v78.7002h39.1699v-78.7002c0 -67.8301 55.1797 -123.021 123.02 -123.021h67.5098v201.72z" />
    <glyph glyph-name="shacyrillic" unicode="&#x448;" horiz-adv-x="577" 
d="M497.78 403.3h39.1807v-402.29h-39.1797v32.3496c-24.4404 -24.6299 -58.2607 -39.9102 -95.6104 -39.9102c-48.8203 0 -91.54 26.2002 -115.18 65.1807c-23.6602 -38.9805 -66.3799 -65.1807 -115.2 -65.1807c-74.3203 0 -134.79 60.4805 -134.79 134.78v275.07h39.1699
v-275.07c0 -52.7197 42.8896 -95.6094 95.6201 -95.6094c52.7197 0 95.6094 42.8896 95.6094 95.6094v275.07h39.1699v-275.07c0 -52.7197 42.8896 -95.6094 95.5996 -95.6094c52.7305 0 95.6104 42.8896 95.6104 95.6094v275.07z" />
    <glyph glyph-name="shchacyrillic" unicode="&#x449;" horiz-adv-x="577" 
d="M497.78 403.3l39.1787 -0.000976562v-358.68c0 -74.3203 -60.4805 -134.79 -134.79 -134.79v39.1797c48.6201 0 88.7803 36.4902 94.7607 83.5205c-24.3701 -24.1396 -57.8398 -39.0801 -94.7598 -39.0801c-48.8203 0 -91.54 26.2002 -115.2 65.1807
c-23.6396 -38.9805 -66.3594 -65.1807 -115.18 -65.1807c-74.3203 0 -134.79 60.4805 -134.79 134.78v275.07h39.1699v-275.07c0 -52.7197 42.8896 -95.6094 95.6201 -95.6094c52.71 0 95.5898 42.8896 95.5898 95.6094v275.07h39.1797v-275.07
c0 -52.7197 42.8799 -95.6094 95.6104 -95.6094s95.6104 42.8896 95.6104 95.6094v275.07z" />
    <glyph glyph-name="hardsigncyrillic" unicode="&#x44a;" horiz-adv-x="350" 
d="M297.53 199.79c26.46 -28.1504 31.6104 -53.21 31.6104 -82.1396c0 -34.5596 -12.2197 -62.54 -36.6299 -83.9404c-24.4102 -21.7998 -54.2705 -32.6895 -89.5801 -32.6895h-130.72v363.33h-51.21v38.9697h90.1797v-161.89h62.2305
c64.3398 0 97.1094 -12.9004 124.119 -41.6406zM263.29 59.29c18.6797 15.8896 28.0098 36.6387 28.0195 62.2188c0 25.9404 -9.51953 46.8604 -28.5293 62.7607c-17.6396 15.2197 -39.7695 22.8301 -66.3896 22.8301h-85.1904v-171.67h85.1904
c26.2695 0 48.5791 7.94043 66.8994 23.8604z" />
    <glyph glyph-name="yericyrillic" unicode="&#x44b;" horiz-adv-x="406" 
d="M141.19 241.43c64.3398 0 97.1094 -12.9004 124.119 -41.6504c26.46 -28.1504 31.6201 -53.21 31.6201 -82.1299c0 -34.5596 -12.2197 -62.54 -36.6299 -83.9404c-24.4199 -21.7998 -54.2695 -32.6895 -89.5791 -32.6895h-130.72v402.3l38.9697 -0.0195312v-161.87
h62.2197zM231.07 59.29c18.6797 15.8896 28.0205 36.6387 28.0303 62.2188c0 25.9404 -9.53027 46.8604 -28.54 62.7607c-17.6299 15.2197 -39.7598 22.8301 -66.3896 22.8301h-85.1904v-171.67h85.1904c26.2695 0 48.5791 7.94043 66.8994 23.8604zM365.562 1.01953
h-38.9697v402.3h38.9697v-402.3z" />
    <glyph glyph-name="softsigncyrillic" unicode="&#x44c;" horiz-adv-x="318" 
d="M265.31 199.79c26.46 -28.1504 31.6201 -53.21 31.6299 -82.1396c0 -34.5596 -12.2197 -62.54 -36.6299 -83.9404c-24.4297 -21.7998 -54.2793 -32.6895 -89.5889 -32.6895h-130.72v402.3l38.9697 -0.0195312v-161.87h62.2197
c64.3398 0 97.1094 -12.9004 124.119 -41.6406zM231.069 59.29c18.6797 15.8896 28.0186 36.6387 27.999 62.2188c0 25.9404 -9.50977 46.8604 -28.5195 62.7607c-17.6299 15.2197 -39.7598 22.8301 -66.3896 22.8301h-85.1904v-171.67h85.1904
c26.2803 0 48.5898 7.94043 66.9102 23.8604z" />
    <glyph glyph-name="ereversedcyrillic" unicode="&#x44d;" horiz-adv-x="394" 
d="M156.78 410.6c115 0 208.56 -93.5322 208.56 -208.532c0 -114.99 -93.5596 -208.55 -208.56 -208.55c-51.71 0 -95.8604 13.4004 -129.78 38.6309v53.46c2.16016 -2.57031 4.33008 -5.11035 6.63965 -7.55078c28.4502 -30.1299 69.8799 -45.3799 123.14 -45.3799
c86.7598 0 158.42 65.5996 168.16 149.79h-195.43v39.1797h195.43c-9.75977 84.1904 -81.3994 149.79 -168.159 149.79c-53.25 0 -94.6699 -15.2695 -123.13 -45.3691c-2.32031 -2.42969 -4.51074 -4.98926 -6.65039 -7.55957v53.4502
c33.9199 25.2305 78.0898 38.6406 129.78 38.6406z" />
    <glyph glyph-name="iucyrillic" unicode="&#x44e;" horiz-adv-x="562" 
d="M324.854 417.142c115.007 0 208.585 -93.5781 208.585 -208.571s-93.5781 -208.571 -208.571 -208.571c-108.767 0 -198.234 83.7227 -207.636 190.084h-37.0576v-182.619h-39.1738v402.297h39.1738v-180.503h37.167c10.4189 105.316 99.502 187.884 207.513 187.884z
M324.854 39.1738c93.4131 0 169.396 75.9834 169.396 169.396s-75.9834 169.396 -169.396 169.396s-169.396 -75.9834 -169.396 -169.396s75.9834 -169.396 169.396 -169.396z" />
    <glyph glyph-name="iacyrillic" unicode="&#x44f;" horiz-adv-x="326" 
d="M149.22 403.14l136.039 -0.0205078v-402.1h-39.1797v159.71h-78.5195l-93.7695 -159.71h-45.4102l95.3799 162.44c-54.6299 11.7402 -95.7598 60.3701 -95.7598 118.47c0 66.8301 54.3896 121.21 121.22 121.21zM246.079 199.889v164.09h-96.8604
c-45.25 0 -82.0596 -36.8096 -82.0596 -82.0498c0 -45.2305 36.8096 -82.04 82.0596 -82.04h96.8604z" />
    <glyph glyph-name="iocyrillic" unicode="&#x451;" horiz-adv-x="473" 
d="M312.49 45.8301c27.9199 11.7002 52.918 35.3887 74.998 71.1191l36.04 -16.5596c-25.3398 -48.0596 -64.29 -80.5195 -116.89 -97.3994c-20.1396 -6.50977 -42.8594 -9.75 -68.1895 -9.75c-60.3896 0 -110.08 19.79 -149.03 59.4102
c-39.6299 39.6104 -59.4199 89.29 -59.4199 149.05c0 60.3799 19.4805 110.07 58.4404 149.03c39.5996 39.5996 89.6094 59.4092 150.01 59.4092c59.7305 0 109.091 -18.5098 148.061 -55.5195c39.5996 -37 59.4199 -85.0703 59.4199 -144.16h-376.96
c0 -54.5596 14.6104 -97.75 43.8301 -129.55c30.5303 -32.4697 72.4004 -48.71 125.66 -48.71c27.29 0 51.96 4.53027 74.0303 13.6299zM238.469 371.168c-83.1299 0 -137.68 -40.9111 -163.63 -122.751h326.31c-6.5 37.0303 -25.6602 66.8906 -57.4697 89.6211
c-30.5303 22.0801 -65.6104 33.1299 -105.21 33.1299zM318.389 437.787c-17.9004 0 -32.4102 14.5195 -32.4102 32.4092c0 17.9004 14.5098 32.4102 32.4102 32.4102s32.4102 -14.5098 32.4102 -32.4102c0 -17.8896 -14.5098 -32.4092 -32.4102 -32.4092zM157.579 437.787
c-17.8896 0 -32.4092 14.5195 -32.4092 32.4092c0 17.9004 14.5195 32.4102 32.4092 32.4102c17.9004 0 32.4102 -14.5098 32.4102 -32.4102c0 -17.8896 -14.5098 -32.4092 -32.4102 -32.4092z" />
    <glyph glyph-name="ecyrillic" unicode="&#x454;" horiz-adv-x="394" 
d="M236.56 371.44c-86.7598 0 -158.4 -65.6182 -168.16 -149.818h195.43v-39.1797h-195.43c9.75977 -84.1904 81.3994 -149.79 168.159 -149.79c53.2598 0 94.6895 15.2695 123.13 45.3691c2.32031 2.4502 4.51074 4.99023 6.65039 7.56055v-53.4502
c-33.9102 -25.2305 -78.0703 -38.6406 -129.78 -38.6406c-115 0 -208.56 93.5596 -208.56 208.56c0 114.99 93.5596 208.55 208.56 208.55c51.71 0 95.8604 -13.4102 129.78 -38.6504v-53.4502c-2.16016 2.58008 -4.33008 5.12012 -6.63965 7.56055
c-28.4697 30.1201 -69.8896 45.3799 -123.14 45.3799z" />
    <glyph glyph-name="icyrillic" unicode="&#x456;" horiz-adv-x="143" 
d="M71.4102 535.02c17.9004 0 32.4102 -14.5098 32.4102 -32.4102c0 -17.8896 -14.5098 -32.4092 -32.4102 -32.4092s-32.4102 14.5195 -32.4102 32.4092c0 17.9004 14.5098 32.4102 32.4102 32.4102zM91.3701 1.00977h-39.9297v402.29h39.9297v-402.29z" />
    <glyph glyph-name="yicyrillic" unicode="&#x457;" horiz-adv-x="211" 
d="M125.29 1.00977h-39.9297v402.29h39.9297v-402.29zM52.4102 470.2c-17.9004 0 -32.4102 14.5098 -32.4102 32.4102s14.5098 32.4102 32.4102 32.4102s32.4102 -14.5098 32.4102 -32.4102s-14.5098 -32.4102 -32.4102 -32.4102zM158.24 470.2
c-17.9004 0 -32.4199 14.5098 -32.4199 32.4102s14.5195 32.4102 32.4199 32.4102s32.4102 -14.5098 32.4102 -32.4102s-14.5098 -32.4102 -32.4102 -32.4102z" />
    <glyph glyph-name="Gheupturncyrillic" unicode="&#x490;" horiz-adv-x="376" 
d="M332.03 756.96l39.9395 -0.000976562v-100.39h-263v-655.55h-38.9697v695.5h262.03v60.4404z" />
    <glyph glyph-name="gheupturncyrillic" unicode="&#x491;" horiz-adv-x="267" 
d="M210.51 460.35h39.4102v-96.4697h-166.95v-362.86h-38.9697v402.28h166.51v57.0498z" />
    <glyph glyph-name="endash" unicode="&#x2013;" horiz-adv-x="474" 
d="M440.35 257h-407.35v39.9297h407.35v-39.9297z" />
    <glyph glyph-name="perthousand" unicode="&#x2030;" horiz-adv-x="852" 
d="M194.05 427.76c-31.8203 0 -59.7393 12 -83.7588 36.04c-24.6904 24.6797 -37.0107 52.6094 -37.0107 83.7793c0 32.4697 11.7002 61.0293 35.0703 85.7197c24.0098 24.0098 52.5996 36.04 85.71 36.04c33.1201 0 61.6904 -12.0195 85.7207 -36.0391
c24.0098 -24.0303 36.04 -52.6104 36.04 -85.7207c0 -34.4297 -11.7002 -62.6895 -35.0605 -84.749c-24.7002 -23.3701 -53.6006 -35.0703 -86.7109 -35.0703zM137.561 605.04c-16.25 -16.2402 -24.3496 -35.3984 -24.3496 -57.4688
c0 -21.4502 8.09961 -39.9502 24.3496 -55.5303c16.2197 -16.2402 35.0596 -24.3506 56.4893 -24.3506c19.4805 0 38.6406 7.7998 57.4805 23.3799c16.21 16.2197 24.3496 35.0693 24.3496 56.499c0 22.0703 -8.12988 41.2305 -24.3496 57.4707
c-16.2402 16.2305 -35.4199 24.3506 -57.4795 24.3506c-22.0703 0 -40.9102 -8.12012 -56.4902 -24.3506zM388.86 224.182c33.1299 0 61.6895 -12.0312 85.7295 -36.041c24.0303 -24.0303 36.04 -52.5898 36.04 -85.71c0 -34.4199 -11.6797 -62.6797 -35.0596 -84.7393
c-24.6904 -23.3701 -53.5801 -35.0703 -86.71 -35.0703c-31.8203 0 -59.75 12 -83.7598 36.04c-24.6904 24.6797 -37.0205 52.5898 -37.0205 83.7695c0 32.4502 11.7002 61.0205 35.0801 85.7109c24.0098 24.0098 52.5898 36.04 85.7002 36.04zM445.37 45.9307
c16.8799 16.8799 25.3232 35.7002 25.3232 56.5c0 22.0703 -8.11035 41.2305 -24.3506 57.4609c-16.2402 16.2402 -35.4004 24.3604 -57.4805 24.3604c-22.0703 0 -40.8906 -8.12012 -56.4805 -24.3604c-16.2305 -16.2305 -24.3506 -35.3906 -24.3506 -57.4609
c0 -20.79 7.79004 -39.9297 23.3799 -57.4697c16.8799 -14.9404 36.04 -22.4102 57.4697 -22.4102c20.7598 0 39.5996 7.7998 56.4893 23.3799zM766.803 188.141c24.0303 -24.04 36.04 -52.6006 36.0596 -85.7109c0 -34.4199 -11.6904 -62.6797 -35.0703 -84.7393
c-24.6904 -23.3701 -53.5801 -35.0703 -86.6904 -35.0703c-31.8301 0 -59.7598 12 -83.7793 36.04c-24.6797 24.6797 -37.0098 52.5898 -37.0098 83.7695c0 32.4502 11.6904 61.0205 35.0703 85.7109c24.0195 24.0098 52.5898 36.04 85.7197 36.04
c33.1104 0 61.6807 -12.0098 85.7002 -36.04zM737.583 45.9297c16.8896 16.8799 25.3311 35.7002 25.3213 56.5c0 22.0703 -8.11035 41.2305 -24.3408 57.4609c-16.25 16.2402 -35.4102 24.3604 -57.4697 24.3604c-22.0898 0 -40.9102 -8.12012 -56.5 -24.3604
c-16.2305 -16.2305 -24.3506 -35.3906 -24.3506 -57.4609c0 -20.79 7.79004 -39.9297 23.3799 -57.4697c16.8896 -14.9404 36.04 -22.4102 57.4805 -22.4102c20.7598 0 39.5898 7.7998 56.4795 23.3799zM558.354 685.899h48.7002l-512.35 -695.5h-48.7002z" />
    <glyph glyph-name="Euro" unicode="&#x20ac;" horiz-adv-x="773" 
d="M462.51 656.09c-149.01 0 -274.35 -103.048 -308.659 -241.628h553.97v-39.1797h-561.06c-1.42969 -12.1904 -2.23926 -24.5703 -2.23926 -37.1504c0 -14.5996 1.08008 -28.9492 2.99023 -43.0391h560.31v-39.1699h-552.46
c36.3398 -135.58 160.229 -235.73 307.13 -235.73c99.5098 0 177.279 28.8799 231.119 85.8496c4.91992 5.20996 9.65039 10.6299 14.2305 16.1699v-56.5c-60.5195 -55.9502 -142.76 -84.6807 -245.35 -84.6807c-168.62 0 -310.22 117.51 -347.46 274.899h-62.0303v39.1797
h55.0596c-1.7002 14.1104 -2.68066 28.46 -2.68066 43.0303c0 12.5498 0.679688 24.9395 1.93945 37.1592h-54.3096v39.1699h60.6797c35.0596 160.35 178.09 280.79 348.81 280.79c102.61 0 184.83 -28.7305 245.35 -84.7002v-56.4902
c-4.55957 5.54004 -9.29004 10.9502 -14.21 16.1602c-53.8398 56.96 -131.609 85.8604 -231.129 85.8604z" />
    <glyph glyph-name="uni20bd" unicode="&#x20bd;" horiz-adv-x="554" 
d="M443.23 639.14c36.3496 -31.1602 54.5391 -73.0596 54.5488 -125.649c0 -53.2598 -18.1797 -95.46 -54.5498 -126.63c-36.3701 -32.4805 -81.1797 -48.7002 -134.42 -48.7002h-130.52v-79.9902h237.42v-39.1699h-237.42v-228.61h-38.9697v228.6h-82.3203v39.1699h82.3203
v80.1904h-82.3203v39.1699h82.3203v308.37h169.49c53.2402 0 98.0498 -15.5801 134.42 -46.75zM414.979 413.15c28.5596 24.6699 42.8496 58.1201 42.8496 100.33s-14.9502 75.3203 -44.8105 99.3604c-26.6299 22.0596 -61.6895 33.1191 -105.199 33.1191h-129.55v-267.87
h129.55c42.8604 0 78.5703 11.6904 107.16 35.0605z" />
    </font>
</defs>
</svg>
